<svg width="1024" height="768" viewBox="0 0 1024 768" xmlns="http://www.w3.org/2000/svg">
<rect x="0" y="0" width="1024" height="768" opacity="1" fill="#FFFFFF" stroke="none"/>
<polyline fill="none" opacity="1" stroke="#0000FF" stroke-width="1" points="35,733 35,733 35,733 35,733 35,733 35,733 35,733 35,733 35,733 35,733 36,733 36,733 36,733 36,733 36,733 36,733 36,733 36,733 36,733 36,733 37,733 37,733 37,733 37,733 37,733 37,733 37,733 37,733 37,733 38,733 38,733 38,733 38,733 38,733 38,733 38,733 38,733 38,733 38,733 39,733 39,733 39,733 39,733 39,733 39,733 39,733 39,733 39,733 39,733 40,733 40,733 40,733 40,733 40,733 40,733 40,733 40,733 40,733 41,733 41,733 41,733 41,733 41,733 41,733 41,733 41,733 41,733 41,733 42,733 42,733 42,733 42,733 42,733 42,733 42,733 42,733 42,733 43,733 43,733 43,733 43,733 43,733 43,733 43,733 43,733 43,733 43,733 44,733 44,733 44,733 44,733 44,733 44,733 44,733 44,733 44,733 44,733 45,733 45,733 45,733 45,733 45,733 45,733 45,733 45,733 45,733 46,733 46,733 46,733 46,733 46,733 46,733 46,733 46,733 46,733 46,733 47,733 47,733 47,733 47,733 47,733 47,733 47,733 47,733 47,733 48,733 48,733 48,733 48,733 48,733 48,733 48,733 48,733 48,733 48,733 49,733 49,733 49,733 49,733 49,733 49,733 49,733 49,733 49,733 49,733 50,733 50,733 50,733 50,733 50,733 50,733 50,733 50,733 50,733 51,733 51,733 51,733 51,733 51,733 51,733 51,733 51,733 51,733 51,733 52,733 52,733 52,733 52,733 52,733 52,733 52,733 52,733 52,733 52,733 53,733 53,733 53,733 53,733 53,733 53,733 53,733 53,733 53,733 54,733 54,733 54,733 54,733 54,733 54,733 54,733 54,733 54,733 54,733 55,733 55,733 55,733 55,733 55,733 55,733 55,733 55,733 55,733 56,733 56,733 56,733 56,733 56,733 56,733 56,733 56,733 56,733 56,733 57,733 57,733 57,733 57,733 57,733 57,733 57,733 57,733 57,733 57,733 58,733 58,733 58,733 58,733 58,733 58,733 58,733 58,733 58,733 59,733 59,733 59,733 59,733 59,733 59,733 59,733 59,733 59,733 59,733 60,733 60,733 60,733 60,733 60,733 60,733 60,733 60,733 60,733 61,733 61,733 61,733 61,733 61,733 61,733 61,733 61,733 61,733 61,733 62,733 62,733 62,733 62,733 62,733 62,733 62,733 62,733 62,733 62,733 63,733 63,733 63,733 63,733 63,733 63,733 63,733 63,733 63,733 64,733 64,733 64,733 64,733 64,733 64,733 64,733 64,733 64,733 64,733 65,733 65,733 65,733 65,733 65,733 65,733 65,733 65,733 65,733 65,733 66,733 66,733 66,733 66,733 66,733 66,733 66,733 66,733 66,733 67,733 67,733 67,733 67,733 67,733 67,733 67,733 67,733 67,733 67,733 68,733 68,733 68,733 68,733 68,733 68,733 68,733 68,733 68,733 69,733 69,733 69,733 69,733 69,733 69,733 69,733 69,733 69,733 69,733 70,733 70,733 70,733 70,733 70,733 70,733 70,733 70,733 70,733 70,733 71,733 71,733 71,733 71,733 71,733 71,733 71,733 71,733 71,733 72,733 72,733 72,733 72,733 72,733 72,733 72,733 72,733 72,733 72,733 73,733 73,733 73,733 73,733 73,733 73,733 73,733 73,733 73,733 74,733 74,733 74,733 74,733 74,733 74,733 74,733 74,733 74,733 74,733 75,733 75,733 75,733 75,733 75,733 75,733 75,733 75,733 75,733 75,733 76,733 76,733 76,733 76,733 76,733 76,733 76,733 76,733 76,733 77,733 77,733 77,733 77,733 77,733 77,733 77,733 77,733 77,733 77,733 78,733 78,733 78,733 78,733 78,733 78,733 78,733 78,733 78,733 78,733 79,733 79,733 79,733 79,733 79,733 79,733 79,733 79,733 79,733 80,733 80,733 80,733 80,733 80,733 80,733 80,733 80,733 80,733 80,733 81,733 81,733 81,733 81,733 81,733 81,733 81,733 81,733 81,733 82,733 82,733 82,733 82,733 82,733 82,733 82,733 82,733 82,733 82,733 83,733 83,733 83,733 83,733 83,733 83,733 83,733 83,733 83,733 83,733 84,733 84,733 84,733 84,733 84,733 84,733 84,733 84,733 84,733 85,733 85,733 85,733 85,733 85,733 85,733 85,733 85,733 85,733 85,733 86,733 86,733 86,733 86,733 86,733 86,733 86,733 86,733 86,733 87,733 87,733 87,733 87,733 87,733 87,733 87,733 87,733 87,733 87,733 88,733 88,733 88,733 88,733 88,733 88,733 88,733 88,733 88,733 88,733 89,733 89,733 89,733 89,733 89,733 89,733 89,733 89,733 89,733 90,733 90,733 90,733 90,733 90,733 90,733 90,733 90,733 90,733 90,733 91,733 91,733 91,733 91,733 91,733 91,733 91,733 91,733 91,733 91,733 92,733 92,733 92,733 92,733 92,733 92,733 92,733 92,733 92,733 93,733 93,733 93,733 93,733 93,733 93,733 93,733 93,733 93,733 93,733 94,733 94,733 94,733 94,733 94,733 94,733 94,733 94,733 94,733 95,733 95,733 95,733 95,733 95,733 95,733 95,733 95,733 95,733 95,733 96,733 96,733 96,733 96,733 96,733 96,733 96,733 96,733 96,733 96,733 97,733 97,733 97,733 97,733 97,733 97,733 97,733 97,733 97,733 98,733 98,733 98,733 98,733 98,733 98,733 98,733 98,733 98,733 98,733 99,733 99,733 99,733 99,733 99,733 99,733 99,733 99,733 99,733 100,733 100,733 100,733 100,733 100,733 100,733 100,733 100,733 100,733 100,733 101,733 101,733 101,733 101,733 101,733 101,733 101,733 101,733 101,733 101,733 102,733 102,733 102,733 102,733 102,733 102,733 102,733 102,733 102,733 103,733 103,733 103,733 103,733 103,733 103,733 103,733 103,733 103,733 103,733 104,733 104,733 104,733 104,733 104,733 104,733 104,733 104,733 104,733 104,733 105,733 105,733 105,733 105,733 105,733 105,733 105,733 105,733 105,733 106,733 106,733 106,733 106,733 106,733 106,733 106,733 106,733 106,733 106,733 107,733 107,733 107,733 107,733 107,733 107,733 107,733 107,733 107,733 108,733 108,733 108,733 108,733 108,733 108,733 108,733 108,733 108,733 108,733 109,733 109,733 109,733 109,733 109,733 109,733 109,733 109,733 109,733 109,733 110,733 110,733 110,733 110,733 110,733 110,733 110,733 110,733 110,733 111,733 111,733 111,733 111,733 111,733 111,733 111,733 111,733 111,733 111,733 112,733 112,733 112,733 112,733 112,733 112,733 112,733 112,733 112,733 113,733 113,733 113,733 113,733 113,733 113,733 113,733 113,733 113,733 113,733 114,733 114,733 114,733 114,733 114,733 114,733 114,733 114,733 114,733 114,733 115,733 115,733 115,733 115,733 115,733 115,733 115,733 115,733 115,733 116,733 116,733 116,733 116,733 116,733 116,733 116,733 116,733 116,733 116,733 117,733 117,733 117,733 117,733 117,733 117,733 117,733 117,733 117,733 117,733 118,733 118,733 118,733 118,733 118,733 118,733 118,733 118,733 118,733 119,733 119,733 119,733 119,733 119,733 119,733 119,733 119,733 119,733 119,733 120,733 120,733 120,733 120,733 120,733 120,733 120,733 120,733 120,733 121,733 121,733 121,733 121,733 121,733 121,733 121,733 121,733 121,733 121,733 122,733 122,733 122,733 122,733 122,733 122,733 122,733 122,733 122,733 122,733 123,733 123,733 123,733 123,733 123,733 123,733 123,733 123,733 123,733 124,733 124,733 124,733 124,733 124,733 124,733 124,733 124,733 124,733 124,733 125,733 125,733 125,733 125,733 125,733 125,733 125,733 125,733 125,733 126,733 126,733 126,733 126,733 126,733 126,733 126,733 126,733 126,733 126,733 127,733 127,733 127,733 127,733 127,733 127,733 127,733 127,733 127,733 127,733 128,733 128,733 128,733 128,733 128,733 128,733 128,733 128,733 128,733 129,733 129,733 129,733 129,733 129,733 129,733 129,733 129,733 129,733 129,733 130,733 130,733 130,733 130,733 130,733 130,733 130,733 130,733 130,733 130,733 131,733 131,733 131,733 131,733 131,733 131,733 131,733 131,733 131,733 132,733 132,733 132,733 132,733 132,733 132,733 132,733 132,733 132,733 132,733 133,733 133,733 133,733 133,733 133,733 133,733 133,733 133,733 133,733 134,733 134,733 134,733 134,733 134,733 134,733 134,733 134,733 134,733 134,733 135,733 135,733 135,733 135,733 135,733 135,733 135,733 135,733 135,733 135,733 136,733 136,733 136,733 136,733 136,733 136,733 136,733 136,733 136,733 137,733 137,733 137,733 137,733 137,733 137,733 137,733 137,733 137,733 137,733 138,733 138,733 138,733 138,733 138,733 138,733 138,733 138,733 138,733 139,733 139,733 139,733 139,733 139,733 139,733 139,733 139,733 139,733 139,733 140,733 140,733 140,733 140,733 140,733 140,733 140,733 140,733 140,733 140,733 141,733 141,733 141,733 141,733 141,733 141,733 141,733 141,733 141,733 142,733 142,733 142,733 142,733 142,733 142,733 142,733 142,733 142,733 142,733 143,733 143,733 143,733 143,733 143,733 143,733 143,733 143,733 143,733 143,733 144,733 144,733 144,733 144,733 144,733 144,733 144,733 144,733 144,733 145,733 145,733 145,733 145,733 145,733 145,733 145,733 145,733 145,733 145,733 146,733 146,733 146,733 146,733 146,733 146,733 146,733 146,733 146,733 147,733 147,733 147,733 147,733 147,733 147,733 147,733 147,733 147,733 147,733 148,733 148,733 148,733 148,733 148,733 148,733 148,733 148,733 148,733 148,733 149,733 149,733 149,733 149,733 149,733 149,733 149,733 149,733 149,733 150,733 150,733 150,733 150,733 150,733 150,733 150,733 150,733 150,733 150,733 151,733 151,733 151,733 151,733 151,733 151,733 151,733 151,733 151,733 152,733 152,733 152,733 152,733 152,733 152,733 152,733 152,733 152,733 152,733 153,733 153,733 153,733 153,733 153,733 153,733 153,733 153,733 153,733 153,733 154,733 154,733 154,733 154,733 154,733 154,733 154,733 154,733 154,733 155,733 155,733 155,733 155,733 155,733 155,733 155,733 155,733 155,733 155,733 156,733 156,733 156,733 156,733 156,733 156,733 156,733 156,733 156,733 156,733 157,733 157,733 157,733 157,733 157,733 157,733 157,733 157,733 157,733 158,733 158,733 158,733 158,733 158,733 158,733 158,733 158,733 158,733 158,733 159,733 159,733 159,733 159,733 159,733 159,733 159,733 159,733 159,733 160,733 160,733 160,733 160,733 160,733 160,733 160,733 160,733 160,733 160,733 161,733 161,733 161,733 161,733 161,733 161,733 161,733 161,733 161,733 161,733 162,733 162,733 162,733 162,733 162,733 162,733 162,733 162,733 162,733 163,733 163,733 163,733 163,733 163,733 163,733 163,733 163,733 163,733 163,733 164,733 164,733 164,733 164,733 164,733 164,733 164,733 164,733 164,733 165,733 165,733 165,733 165,733 165,733 165,733 165,733 165,733 165,733 165,733 166,733 166,733 166,733 166,733 166,733 166,733 166,733 166,733 166,733 166,733 167,733 167,733 167,733 167,733 167,733 167,733 167,733 167,733 167,733 168,733 168,733 168,733 168,733 168,733 168,733 168,733 168,733 168,733 168,733 169,733 169,733 169,733 169,733 169,733 169,733 169,733 169,733 169,733 169,733 170,733 170,733 170,733 170,733 170,733 170,733 170,733 170,733 170,733 171,733 171,733 171,733 171,733 171,733 171,733 171,733 171,733 171,733 171,733 172,733 172,733 172,733 172,733 172,733 172,733 172,733 172,733 172,733 173,733 173,733 173,733 173,733 173,733 173,733 173,733 173,733 173,733 173,733 174,733 174,733 174,733 174,733 174,733 174,733 174,733 174,733 174,733 174,733 175,733 175,733 175,733 175,733 175,733 175,733 175,733 175,733 175,733 176,733 176,733 176,733 176,733 176,733 176,733 176,733 176,733 176,733 176,733 177,733 177,733 177,733 177,733 177,733 177,733 177,733 177,733 177,733 178,733 178,733 178,733 178,733 178,733 178,733 178,733 178,733 178,733 178,733 179,733 179,733 179,733 179,733 179,733 179,733 179,733 179,733 179,733 179,733 180,733 180,733 180,733 180,733 180,733 180,733 180,733 180,733 180,733 181,733 181,733 181,733 181,733 181,733 181,733 181,733 181,733 181,733 181,733 182,733 182,733 182,733 182,733 182,733 182,733 182,733 182,733 182,733 182,733 183,733 183,733 183,733 183,733 183,733 183,733 183,733 183,733 183,733 184,733 184,733 184,733 184,733 184,733 184,733 184,733 184,733 184,733 184,733 185,733 185,733 185,733 185,733 185,733 185,733 185,733 185,733 185,733 186,733 186,733 186,733 186,733 186,733 186,733 186,733 186,733 186,733 186,733 187,733 187,733 187,733 187,733 187,733 187,733 187,733 187,733 187,733 187,733 188,733 188,733 188,733 188,733 188,733 188,733 188,733 188,733 188,733 189,733 189,733 189,733 189,733 189,733 189,733 189,733 189,733 189,733 189,733 190,733 190,733 190,733 190,733 190,733 190,733 190,733 190,733 190,733 191,733 191,733 191,733 191,733 191,733 191,733 191,733 191,733 191,733 191,733 192,733 192,733 192,733 192,733 192,733 192,733 192,733 192,733 192,733 192,733 193,733 193,733 193,733 193,733 193,733 193,733 193,733 193,733 193,733 194,733 194,733 194,733 194,733 194,733 194,733 194,733 194,733 194,733 194,733 195,733 195,733 195,733 195,733 195,733 195,733 195,733 195,733 195,733 195,733 196,733 196,733 196,733 196,733 196,733 196,733 196,733 196,733 196,733 197,733 197,733 197,733 197,733 197,733 197,733 197,733 197,733 197,733 197,733 198,733 198,733 198,733 198,733 198,733 198,733 198,733 198,733 198,733 199,733 199,733 199,733 199,733 199,733 199,733 199,733 199,733 199,733 199,733 200,733 200,733 200,733 200,733 200,733 200,733 200,733 200,733 200,733 200,733 201,733 201,733 201,733 201,733 201,733 201,733 201,733 201,733 201,733 202,733 202,733 202,733 202,733 202,733 202,733 202,733 202,733 202,733 202,733 203,733 203,733 203,733 203,733 203,733 203,733 203,733 203,733 203,733 204,733 204,733 204,733 204,733 204,733 204,733 204,733 204,733 204,733 204,733 205,733 205,733 205,733 205,733 205,733 205,733 205,733 205,733 205,733 205,733 206,733 206,733 206,733 206,733 206,733 206,733 206,733 206,733 206,733 207,733 207,733 207,733 207,733 207,733 207,733 207,733 207,733 207,733 207,733 208,733 208,733 208,733 208,733 208,733 208,733 208,733 208,733 208,733 208,733 209,733 209,733 209,733 209,733 209,733 209,733 209,733 209,733 209,733 210,733 210,733 210,733 210,733 210,733 210,733 210,733 210,733 210,733 210,733 211,733 211,733 211,733 211,733 211,733 211,733 211,733 211,733 211,733 212,733 212,733 212,733 212,733 212,733 212,733 212,733 212,733 212,733 212,733 213,733 213,733 213,733 213,733 213,733 213,733 213,733 213,733 213,733 213,733 214,733 214,733 214,733 214,733 214,733 214,733 214,733 214,733 214,733 215,733 215,733 215,733 215,733 215,733 215,733 215,733 215,733 215,733 215,733 216,733 216,733 216,733 216,733 216,733 216,733 216,733 216,733 216,733 217,733 217,733 217,733 217,733 217,733 217,733 217,733 217,733 217,733 217,733 218,733 218,733 218,733 218,733 218,733 218,733 218,733 218,733 218,733 218,733 219,733 219,733 219,733 219,733 219,733 219,733 219,733 219,733 219,733 220,733 220,733 220,733 220,733 220,733 220,733 220,733 220,733 220,733 220,733 221,733 221,733 221,733 221,733 221,733 221,733 221,733 221,733 221,733 221,733 222,733 222,733 222,733 222,733 222,733 222,733 222,733 222,733 222,733 223,733 223,733 223,733 223,733 223,733 223,733 223,733 223,733 223,733 223,733 224,733 224,733 224,733 224,733 224,733 224,733 224,733 224,733 224,733 225,733 225,733 225,733 225,733 225,733 225,733 225,733 225,733 225,733 225,733 226,733 226,733 226,733 226,733 226,733 226,733 226,733 226,733 226,733 226,733 227,733 227,733 227,733 227,733 227,733 227,733 227,733 227,733 227,733 228,733 228,733 228,733 228,733 228,733 228,733 228,733 228,733 228,733 228,733 229,733 229,733 229,733 229,733 229,733 229,733 229,733 229,733 229,733 230,733 230,733 230,733 230,733 230,733 230,733 230,733 230,733 230,733 230,733 231,733 231,733 231,733 231,733 231,733 231,733 231,733 231,733 231,733 231,733 232,733 232,733 232,733 232,733 232,733 232,733 232,733 232,733 232,733 233,733 233,733 233,733 233,733 233,733 233,733 233,733 233,733 233,733 233,733 234,733 234,733 234,733 234,733 234,733 234,733 234,733 234,733 234,733 234,733 235,733 235,733 235,733 235,733 235,733 235,733 235,733 235,733 235,733 236,733 236,733 236,733 236,733 236,733 236,733 236,733 236,733 236,733 236,733 237,733 237,733 237,733 237,733 237,733 237,733 237,733 237,733 237,733 238,733 238,733 238,733 238,733 238,733 238,733 238,733 238,733 238,733 238,733 239,733 239,733 239,733 239,733 239,733 239,733 239,733 239,733 239,733 239,733 240,733 240,733 240,733 240,733 240,733 240,733 240,733 240,733 240,733 241,733 241,733 241,733 241,733 241,733 241,733 241,733 241,733 241,733 241,733 242,733 242,733 242,733 242,733 242,733 242,733 242,733 242,733 242,733 243,733 243,733 243,733 243,733 243,733 243,733 243,733 243,733 243,733 243,733 244,733 244,733 244,733 244,733 244,733 244,733 244,733 244,733 244,733 244,733 245,733 245,733 245,733 245,733 245,733 245,733 245,733 245,733 245,733 246,733 246,733 246,733 246,733 246,733 246,733 246,733 246,733 246,733 246,733 247,733 247,733 247,733 247,733 247,733 247,733 247,733 247,733 247,733 247,733 248,733 248,733 248,733 248,733 248,733 248,733 248,733 248,733 248,733 249,733 249,733 249,733 249,733 249,733 249,733 249,733 249,733 249,733 249,733 250,733 250,733 250,733 250,733 250,733 250,733 250,733 250,733 250,733 251,733 251,733 251,733 251,733 251,733 251,733 251,733 251,733 251,733 251,733 252,733 252,733 252,733 252,733 252,733 252,733 252,733 252,733 252,733 252,733 253,733 253,733 253,733 253,733 253,733 253,733 253,733 253,733 253,733 254,733 254,733 254,733 254,733 254,733 254,733 254,733 254,733 254,733 254,733 255,733 255,733 255,733 255,733 255,733 255,733 255,733 255,733 255,733 256,733 256,733 256,733 256,733 256,733 256,733 256,733 256,733 256,733 256,733 257,733 257,733 257,733 257,733 257,733 257,733 257,733 257,733 257,733 257,733 258,733 258,733 258,733 258,733 258,733 258,733 258,733 258,733 258,733 259,733 259,733 259,733 259,733 259,733 259,733 259,733 259,733 259,733 259,733 260,733 260,733 260,733 260,733 260,733 260,733 260,733 260,733 260,733 260,733 261,733 261,733 261,733 261,733 261,733 261,733 261,733 261,733 261,733 262,733 262,733 262,733 262,733 262,733 262,733 262,733 262,733 262,733 262,733 263,733 263,733 263,733 263,733 263,733 263,733 263,733 263,733 263,733 264,733 264,733 264,733 264,733 264,733 264,733 264,733 264,733 264,733 264,733 265,733 265,733 265,733 265,733 265,733 265,733 265,733 265,733 265,733 265,733 266,733 266,733 266,733 266,733 266,733 266,733 266,733 266,733 266,733 267,733 267,733 267,733 267,733 267,733 267,733 267,733 267,733 267,733 267,733 268,733 268,733 268,733 268,733 268,733 268,733 268,733 268,733 268,733 269,733 269,733 269,733 269,733 269,733 269,733 269,733 269,733 269,733 269,733 270,733 270,733 270,733 270,733 270,733 270,733 270,733 270,733 270,733 270,733 271,733 271,733 271,733 271,733 271,733 271,733 271,733 271,733 271,733 272,733 272,733 272,733 272,733 272,733 272,733 272,733 272,733 272,733 272,733 273,733 273,733 273,733 273,733 273,733 273,733 273,733 273,733 273,733 273,733 274,733 274,733 274,733 274,733 274,733 274,733 274,733 274,733 274,733 275,733 275,733 275,733 275,733 275,733 275,733 275,733 275,733 275,733 275,733 276,733 276,733 276,733 276,733 276,733 276,733 276,733 276,733 276,733 277,733 277,733 277,733 277,733 277,733 277,733 277,733 277,733 277,733 277,733 278,733 278,733 278,733 278,733 278,733 278,733 278,733 278,733 278,733 278,733 279,733 279,733 279,733 279,733 279,733 279,733 279,733 279,733 279,733 280,733 280,733 280,733 280,733 280,733 280,733 280,733 280,733 280,733 280,733 281,733 281,733 281,733 281,733 281,733 281,733 281,733 281,733 281,733 282,733 282,733 282,733 282,733 282,733 282,733 282,733 282,733 282,733 282,733 283,733 283,733 283,733 283,733 283,733 283,733 283,733 283,733 283,733 283,733 284,733 284,733 284,733 284,733 284,733 284,733 284,733 284,733 284,733 285,733 285,733 285,733 285,733 285,733 285,733 285,733 285,733 285,733 285,733 286,733 286,733 286,733 286,733 286,733 286,733 286,733 286,733 286,733 286,733 287,733 287,733 287,733 287,733 287,733 287,733 287,733 287,733 287,733 288,733 288,733 288,733 288,733 288,733 288,733 288,733 288,733 288,733 288,733 289,733 289,733 289,733 289,733 289,733 289,733 289,733 289,733 289,733 290,733 290,733 290,733 290,733 290,733 290,733 290,733 290,733 290,733 290,733 291,733 291,733 291,733 291,733 291,733 291,733 291,733 291,733 291,733 291,733 292,733 292,733 292,733 292,733 292,733 292,733 292,733 292,733 292,733 293,733 293,733 293,733 293,733 293,733 293,733 293,733 293,733 293,733 293,733 294,733 294,733 294,733 294,733 294,733 294,733 294,733 294,733 294,733 295,733 295,733 295,733 295,733 295,733 295,733 295,733 295,733 295,733 295,733 296,733 296,733 296,733 296,733 296,733 296,733 296,733 296,733 296,733 296,733 297,733 297,733 297,733 297,733 297,733 297,733 297,733 297,733 297,733 298,733 298,733 298,733 298,733 298,733 298,733 298,733 298,733 298,733 298,733 299,733 299,733 299,733 299,733 299,733 299,733 299,733 299,733 299,733 299,733 300,733 300,733 300,733 300,733 300,733 300,733 300,733 300,733 300,733 301,733 301,733 301,733 301,733 301,733 301,733 301,733 301,733 301,733 301,733 302,733 302,733 302,733 302,733 302,733 302,733 302,733 302,733 302,733 303,733 303,733 303,733 303,733 303,733 303,733 303,733 303,733 303,733 303,733 304,733 304,733 304,733 304,733 304,733 304,733 304,733 304,733 304,733 304,733 305,733 305,733 305,733 305,733 305,733 305,733 305,733 305,733 305,733 306,733 306,733 306,733 306,733 306,733 306,733 306,733 306,733 306,733 306,733 307,733 307,733 307,733 307,733 307,733 307,733 307,733 307,733 307,733 308,733 308,733 308,733 308,733 308,733 308,733 308,733 308,733 308,733 308,733 309,733 309,733 309,733 309,733 309,733 309,733 309,733 309,733 309,733 309,733 310,733 310,733 310,733 310,733 310,733 310,733 310,733 310,733 310,733 311,733 311,733 311,733 311,733 311,733 311,733 311,733 311,733 311,733 311,733 312,733 312,733 312,733 312,733 312,733 312,733 312,733 312,733 312,733 312,733 313,733 313,733 313,733 313,733 313,733 313,733 313,733 313,733 313,733 314,733 314,733 314,733 314,733 314,733 314,733 314,733 314,733 314,733 314,733 315,733 315,733 315,733 315,733 315,733 315,733 315,733 315,733 315,733 316,733 316,733 316,733 316,733 316,733 316,733 316,733 316,733 316,733 316,733 317,733 317,733 317,733 317,733 317,733 317,733 317,733 317,733 317,733 317,733 318,733 318,733 318,733 318,733 318,733 318,733 318,733 318,733 318,733 319,733 319,733 319,733 319,733 319,733 319,733 319,733 319,733 319,733 319,733 320,733 320,733 320,733 320,733 320,733 320,733 320,733 320,733 320,733 321,733 321,733 321,733 321,733 321,733 321,733 321,733 321,733 321,733 321,733 322,733 322,733 322,733 322,733 322,733 322,733 322,733 322,733 322,733 322,733 323,733 323,733 323,733 323,733 323,733 323,733 323,733 323,733 323,733 324,733 324,733 324,733 324,733 324,733 324,733 324,733 324,733 324,733 324,733 325,733 325,733 325,733 325,733 325,733 325,733 325,733 325,733 325,733 325,733 326,733 326,733 326,733 326,733 326,733 326,733 326,733 326,733 326,733 327,733 327,733 327,733 327,733 327,733 327,733 327,733 327,733 327,733 327,733 328,733 328,733 328,733 328,733 328,733 328,733 328,733 328,733 328,733 329,733 329,733 329,733 329,733 329,733 329,733 329,733 329,733 329,733 329,733 330,733 330,733 330,733 330,733 330,733 330,733 330,733 330,733 330,733 330,733 331,733 331,733 331,733 331,733 331,733 331,733 331,733 331,733 331,733 332,733 332,733 332,733 332,733 332,733 332,733 332,733 332,733 332,733 332,733 333,733 333,733 333,733 333,733 333,733 333,733 333,733 333,733 333,733 334,733 334,733 334,733 334,733 334,733 334,733 334,733 334,733 334,733 334,733 335,733 335,733 335,733 335,733 335,733 335,733 335,733 335,733 335,733 335,733 336,733 336,733 336,733 336,733 336,733 336,733 336,733 336,733 336,733 337,733 337,733 337,733 337,733 337,733 337,733 337,733 337,733 337,733 337,733 338,733 338,733 338,733 338,733 338,733 338,733 338,733 338,733 338,733 338,733 339,733 339,733 339,733 339,733 339,733 339,733 339,733 339,733 339,733 340,733 340,733 340,733 340,733 340,733 340,733 340,733 340,733 340,733 340,733 341,733 341,733 341,733 341,733 341,733 341,733 341,733 341,733 341,733 342,733 342,733 342,733 342,733 342,733 342,733 342,733 342,733 342,733 342,733 343,733 343,733 343,733 343,733 343,733 343,733 343,733 343,733 343,733 343,733 344,733 344,733 344,733 344,733 344,733 344,733 344,733 344,733 344,733 345,733 345,733 345,733 345,733 345,733 345,733 345,733 345,733 345,733 345,733 346,733 346,733 346,733 346,733 346,733 346,733 346,733 346,733 346,733 347,733 347,733 347,733 347,733 347,733 347,733 347,733 347,733 347,733 347,733 348,733 348,733 348,733 348,733 348,733 348,733 348,733 348,733 348,733 348,733 349,733 349,733 349,733 349,733 349,733 349,733 349,733 349,733 349,733 350,733 350,733 350,733 350,733 350,733 350,733 350,733 350,733 350,733 350,733 351,733 351,733 351,733 351,733 351,733 351,733 351,733 351,733 351,733 351,733 352,733 352,733 352,733 352,733 352,733 352,733 352,733 352,733 352,733 353,733 353,733 353,733 353,733 353,733 353,733 353,733 353,733 353,733 353,733 354,733 354,733 354,733 354,733 354,733 354,733 354,733 354,733 354,733 355,733 355,733 355,733 355,733 355,733 355,733 355,733 355,733 355,733 355,733 356,733 356,733 356,733 356,733 356,733 356,733 356,733 356,733 356,733 356,733 357,733 357,733 357,733 357,733 357,733 357,733 357,733 357,733 357,733 358,733 358,733 358,733 358,733 358,733 358,733 358,733 358,733 358,733 358,733 359,733 359,733 359,733 359,733 359,733 359,733 359,733 359,733 359,733 360,733 360,733 360,733 360,733 360,733 360,733 360,733 360,733 360,733 360,733 361,733 361,733 361,733 361,733 361,733 361,733 361,733 361,733 361,733 361,733 362,733 362,733 362,733 362,733 362,733 362,733 362,733 362,733 362,733 363,733 363,733 363,733 363,733 363,733 363,733 363,733 363,733 363,733 363,733 364,733 364,733 364,733 364,733 364,733 364,733 364,733 364,733 364,733 364,733 365,733 365,733 365,733 365,733 365,733 365,733 365,733 365,733 365,733 366,733 366,733 366,733 366,733 366,733 366,733 366,733 366,733 366,733 366,733 367,733 367,733 367,733 367,733 367,733 367,733 367,733 367,733 367,733 368,733 368,733 368,733 368,733 368,733 368,733 368,733 368,733 368,733 368,733 369,733 369,733 369,733 369,733 369,733 369,733 369,733 369,733 369,733 369,733 370,733 370,733 370,733 370,733 370,733 370,733 370,733 370,733 370,733 371,733 371,733 371,733 371,733 371,733 371,733 371,733 371,733 371,733 371,733 372,733 372,733 372,733 372,733 372,733 372,733 372,733 372,733 372,733 373,733 373,733 373,733 373,733 373,733 373,733 373,733 373,733 373,733 373,733 374,733 374,733 374,733 374,733 374,733 374,733 374,733 374,733 374,733 374,733 375,733 375,733 375,733 375,733 375,733 375,733 375,733 375,733 375,733 376,733 376,733 376,733 376,733 376,733 376,733 376,733 376,733 376,733 376,733 377,733 377,733 377,733 377,733 377,733 377,733 377,733 377,733 377,733 377,733 378,733 378,733 378,733 378,733 378,733 378,733 378,733 378,733 378,733 379,733 379,733 379,733 379,733 379,733 379,733 379,733 379,733 379,733 379,733 380,733 380,733 380,733 380,733 380,733 380,733 380,733 380,733 380,733 381,733 381,733 381,733 381,733 381,733 381,733 381,733 381,733 381,733 381,733 382,733 382,733 382,733 382,733 382,733 382,733 382,733 382,733 382,733 382,733 383,733 383,733 383,733 383,733 383,733 383,733 383,733 383,733 383,733 384,733 384,733 384,733 384,733 384,733 384,733 384,733 384,733 384,733 384,733 385,733 385,733 385,733 385,733 385,733 385,733 385,733 385,733 385,733 386,733 386,733 386,733 386,733 386,733 386,733 386,733 386,733 386,733 386,733 387,733 387,733 387,733 387,733 387,733 387,733 387,733 387,733 387,733 387,733 388,733 388,733 388,733 388,733 388,733 388,733 388,733 388,733 388,733 389,733 389,733 389,733 389,733 389,733 389,733 389,733 389,733 389,733 389,733 390,733 390,733 390,733 390,733 390,733 390,733 390,733 390,733 390,733 390,733 391,733 391,733 391,733 391,733 391,733 391,733 391,733 391,733 391,733 392,733 392,733 392,733 392,733 392,733 392,733 392,733 392,733 392,733 392,733 393,733 393,733 393,733 393,733 393,733 393,733 393,733 393,733 393,733 394,733 394,733 394,733 394,733 394,733 394,733 394,733 394,733 394,733 394,733 395,733 395,733 395,733 395,733 395,733 395,733 395,733 395,733 395,733 395,733 396,733 396,733 396,733 396,733 396,733 396,733 396,733 396,733 396,733 397,733 397,733 397,733 397,733 397,733 397,733 397,733 397,733 397,733 397,733 398,733 398,733 398,733 398,733 398,733 398,733 398,733 398,733 398,733 399,733 399,733 399,733 399,733 399,733 399,733 399,733 399,733 399,733 399,733 400,733 400,733 400,733 400,733 400,733 400,733 400,733 400,733 400,733 400,733 401,733 401,733 401,733 401,733 401,733 401,733 401,733 401,733 401,733 402,733 402,733 402,733 402,733 402,733 402,733 402,733 402,733 402,733 402,733 403,733 403,733 403,733 403,733 403,733 403,733 403,733 403,733 403,733 403,733 404,733 404,733 404,733 404,733 404,733 404,733 404,733 404,733 404,733 405,733 405,733 405,733 405,733 405,733 405,733 405,733 405,733 405,733 405,733 406,733 406,733 406,733 406,733 406,733 406,733 406,733 406,733 406,733 407,733 407,733 407,733 407,733 407,733 407,733 407,733 407,733 407,733 407,733 408,733 408,733 408,733 408,733 408,733 408,733 408,733 408,733 408,733 408,733 409,733 409,733 409,733 409,733 409,733 409,733 409,733 409,733 409,733 410,733 410,733 410,733 410,733 410,733 410,733 410,733 410,733 410,733 410,733 411,733 411,733 411,733 411,733 411,733 411,733 411,733 411,733 411,733 412,733 412,733 412,733 412,733 412,733 412,733 412,733 412,733 412,733 412,733 413,733 413,733 413,733 413,733 413,733 413,733 413,733 413,733 413,733 413,733 414,733 414,733 414,733 414,733 414,733 414,733 414,733 414,733 414,733 415,733 415,733 415,733 415,733 415,733 415,733 415,733 415,733 415,733 415,733 416,733 416,733 416,733 416,733 416,733 416,733 416,733 416,733 416,733 416,733 417,733 417,733 417,733 417,733 417,733 417,733 417,733 417,733 417,733 418,733 418,733 418,733 418,733 418,733 418,733 418,733 418,733 418,733 418,733 419,733 419,733 419,733 419,733 419,733 419,733 419,733 419,733 419,733 420,733 420,733 420,733 420,733 420,733 420,733 420,733 420,733 420,733 420,733 421,733 421,733 421,733 421,733 421,733 421,733 421,733 421,733 421,733 421,733 422,733 422,733 422,733 422,733 422,733 422,733 422,733 422,733 422,733 423,733 423,733 423,733 423,733 423,733 423,733 423,733 423,733 423,733 423,733 424,733 424,733 424,733 424,733 424,733 424,733 424,733 424,733 424,733 425,733 425,733 425,733 425,733 425,733 425,733 425,733 425,733 425,733 425,733 426,733 426,733 426,733 426,733 426,733 426,733 426,733 426,733 426,733 426,733 427,733 427,733 427,733 427,733 427,733 427,733 427,733 427,733 427,733 428,733 428,733 428,733 428,733 428,733 428,733 428,733 428,733 428,733 428,733 429,733 429,733 429,733 429,733 429,733 429,733 429,733 429,733 429,733 429,733 430,733 430,733 430,733 430,733 430,733 430,733 430,733 430,733 430,733 431,733 431,733 431,733 431,733 431,733 431,733 431,733 431,733 431,733 431,733 432,733 432,733 432,733 432,733 432,733 432,733 432,733 432,733 432,733 433,733 433,733 433,733 433,733 433,733 433,733 433,733 433,733 433,733 433,733 434,733 434,733 434,733 434,733 434,733 434,733 434,733 434,733 434,733 434,733 435,733 435,733 435,733 435,733 435,733 435,733 435,733 435,733 435,733 436,733 436,733 436,733 436,733 436,733 436,733 436,733 436,733 436,733 436,733 437,733 437,733 437,733 437,733 437,733 437,733 437,733 437,733 437,733 438,733 438,733 438,733 438,733 438,733 438,733 438,733 438,733 438,733 438,733 439,733 439,733 439,733 439,733 439,733 439,733 439,733 439,733 439,733 439,733 440,733 440,733 440,733 440,733 440,733 440,733 440,733 440,733 440,733 441,733 441,733 441,733 441,733 441,733 441,733 441,733 441,733 441,733 441,733 442,733 442,733 442,733 442,733 442,733 442,733 442,733 442,733 442,733 442,733 443,733 443,733 443,733 443,733 443,733 443,733 443,733 443,733 443,733 444,733 444,733 444,733 444,733 444,733 444,733 444,733 444,733 444,733 444,733 445,733 445,733 445,733 445,733 445,733 445,733 445,733 445,733 445,733 446,733 446,733 446,733 446,733 446,733 446,733 446,733 446,733 446,733 446,733 447,733 447,733 447,733 447,733 447,733 447,733 447,733 447,733 447,733 447,733 448,733 448,733 448,733 448,733 448,733 448,733 448,733 448,733 448,733 449,733 449,733 449,733 449,733 449,733 449,733 449,733 449,733 449,733 449,733 450,733 450,733 450,733 450,733 450,733 450,733 450,733 450,733 450,733 451,733 451,733 451,733 451,733 451,733 451,733 451,733 451,733 451,733 451,733 452,733 452,733 452,733 452,733 452,733 452,733 452,733 452,733 452,733 452,733 453,733 453,733 453,733 453,733 453,733 453,733 453,733 453,733 453,733 454,733 454,733 454,733 454,733 454,733 454,733 454,733 454,733 454,733 454,733 455,733 455,733 455,733 455,733 455,733 455,733 455,733 455,733 455,733 455,733 456,733 456,733 456,733 456,733 456,733 456,733 456,733 456,733 456,733 457,733 457,733 457,733 457,733 457,733 457,733 457,733 457,733 457,733 457,733 458,733 458,733 458,733 458,733 458,733 458,733 458,733 458,733 458,733 459,733 459,733 459,733 459,733 459,733 459,733 459,733 459,733 459,733 459,733 460,733 460,733 460,733 460,733 460,733 460,733 460,733 460,733 460,733 460,733 461,733 461,733 461,733 461,733 461,733 461,733 461,733 461,733 461,733 462,733 462,733 462,733 462,733 462,733 462,733 462,733 462,733 462,733 462,733 463,733 463,733 463,733 463,733 463,733 463,733 463,733 463,733 463,733 464,733 464,733 464,733 464,733 464,733 464,733 464,733 464,733 464,733 464,733 465,733 465,733 465,733 465,733 465,733 465,733 465,733 465,733 465,733 465,733 466,733 466,733 466,733 466,733 466,733 466,733 466,733 466,733 466,733 467,733 467,733 467,733 467,733 467,733 467,733 467,733 467,733 467,733 467,733 468,733 468,733 468,733 468,733 468,733 468,733 468,733 468,733 468,733 468,733 469,733 469,733 469,733 469,733 469,733 469,733 469,733 469,733 469,733 470,733 470,733 470,733 470,733 470,733 470,733 470,733 470,733 470,733 470,733 471,733 471,733 471,733 471,733 471,733 471,733 471,733 471,733 471,733 472,733 472,733 472,733 472,733 472,733 472,733 472,733 472,733 472,733 472,733 473,733 473,733 473,733 473,733 473,733 473,733 473,733 473,733 473,733 473,733 474,733 474,733 474,733 474,733 474,733 474,733 474,733 474,733 474,733 475,733 475,733 475,733 475,733 475,733 475,733 475,733 475,733 475,733 475,733 476,733 476,733 476,733 476,733 476,733 476,733 476,733 476,733 476,733 477,733 477,733 477,733 477,733 477,733 477,733 477,733 477,733 477,733 477,733 478,733 478,733 478,733 478,733 478,733 478,733 478,733 478,733 478,733 478,733 479,733 479,733 479,733 479,733 479,733 479,733 479,733 479,733 479,733 480,733 480,733 480,733 480,733 480,733 480,733 480,733 480,733 480,733 480,733 481,733 481,733 481,733 481,733 481,733 481,733 481,733 481,733 481,733 481,733 482,733 482,733 482,733 482,733 482,733 482,733 482,733 482,733 482,733 483,733 483,733 483,733 483,733 483,733 483,733 483,733 483,733 483,733 483,733 484,733 484,733 484,733 484,733 484,733 484,733 484,733 484,733 484,733 485,733 485,733 485,733 485,733 485,733 485,733 485,733 485,733 485,733 485,733 486,733 486,733 486,733 486,733 486,733 486,733 486,733 486,733 486,733 486,733 487,733 487,733 487,733 487,733 487,733 487,733 487,733 487,733 487,733 488,733 488,733 488,733 488,733 488,733 488,733 488,733 488,733 488,733 488,733 489,733 489,733 489,733 489,733 489,733 489,733 489,733 489,733 489,733 490,733 490,733 490,733 490,733 490,733 490,733 490,733 490,733 490,733 490,733 491,733 491,733 491,733 491,733 491,733 491,733 491,733 491,733 491,733 491,733 492,733 492,733 492,733 492,733 492,733 492,733 492,733 492,733 492,733 493,733 493,733 493,733 493,733 493,733 493,733 493,733 493,733 493,733 493,733 494,733 494,733 494,733 494,733 494,733 494,733 494,733 494,733 494,733 494,733 495,733 495,733 495,733 495,733 495,733 495,733 495,733 495,733 495,733 496,733 496,733 496,733 496,733 496,733 496,733 496,733 496,733 496,733 496,733 497,733 497,733 497,733 497,733 497,733 497,733 497,733 497,733 497,733 498,733 498,733 498,733 498,733 498,733 498,733 498,733 498,733 498,733 498,733 499,733 499,733 499,733 499,733 499,733 499,733 499,733 499,733 499,733 499,733 500,733 500,733 500,733 500,733 500,733 500,733 500,733 500,733 500,733 501,733 501,733 501,733 501,733 501,733 501,733 501,733 501,733 501,733 501,733 502,733 502,733 502,733 502,733 502,733 502,733 502,733 502,733 502,733 503,733 503,733 503,733 503,733 503,733 503,733 503,733 503,733 503,733 503,733 504,733 504,733 504,733 504,733 504,733 504,733 504,733 504,733 504,733 504,733 505,733 505,733 505,733 505,733 505,733 505,733 505,733 505,733 505,733 506,733 506,733 506,733 506,733 506,733 506,733 506,733 506,733 506,733 506,733 507,733 507,733 507,733 507,733 507,733 507,733 507,733 507,733 507,733 507,733 508,733 508,733 508,733 508,733 508,733 508,733 508,733 508,733 508,733 509,733 509,733 509,733 509,733 509,733 509,733 509,733 509,733 509,733 509,733 510,733 510,733 510,733 510,733 510,733 510,733 510,733 510,733 510,733 511,733 511,733 511,733 511,733 511,733 511,733 511,733 511,733 511,733 511,733 512,733 512,733 512,733 512,733 512,733 512,733 512,733 512,733 512,733 512,733 513,733 513,733 513,733 513,733 513,733 513,733 513,733 513,733 513,733 514,733 514,733 514,733 514,733 514,733 514,733 514,733 514,733 514,733 514,733 515,733 515,733 515,733 515,733 515,733 515,733 515,733 515,733 515,733 516,733 516,733 516,733 516,733 516,733 516,733 516,733 516,733 516,733 516,733 517,733 517,733 517,733 517,733 517,733 517,733 517,733 517,733 517,733 517,733 518,733 518,733 518,733 518,733 518,733 518,733 518,733 518,733 518,733 519,733 519,733 519,733 519,733 519,733 519,733 519,733 519,733 519,733 519,733 520,733 520,733 520,733 520,733 520,733 520,733 520,733 520,733 520,733 520,733 521,733 521,733 521,733 521,733 521,733 521,733 521,733 521,733 521,733 522,733 522,733 522,733 522,733 522,733 522,733 522,733 522,733 522,733 522,733 523,733 523,733 523,733 523,733 523,733 523,733 523,733 523,733 523,733 524,733 524,733 524,733 524,733 524,733 524,733 524,733 524,733 524,733 524,733 525,733 525,733 525,733 525,733 525,733 525,733 525,733 525,733 525,733 525,733 526,733 526,733 526,733 526,733 526,733 526,733 526,733 526,733 526,733 527,733 527,733 527,733 527,733 527,733 527,733 527,733 527,733 527,733 527,733 528,733 528,733 528,733 528,733 528,733 528,733 528,733 528,733 528,733 529,733 529,733 529,733 529,733 529,733 529,733 529,733 529,733 529,733 529,733 530,733 530,733 530,733 530,733 530,733 530,733 530,733 530,733 530,733 530,733 531,733 531,733 531,733 531,733 531,733 531,733 531,733 531,733 531,733 532,733 532,733 532,733 532,733 532,733 532,733 532,733 532,733 532,733 532,733 533,733 533,733 533,733 533,733 533,733 533,733 533,733 533,733 533,733 533,733 534,733 534,733 534,733 534,733 534,733 534,733 534,733 534,733 534,733 535,733 535,733 535,733 535,733 535,733 535,733 535,733 535,733 535,733 535,733 536,733 536,733 536,733 536,733 536,733 536,733 536,733 536,733 536,733 537,733 537,733 537,733 537,733 537,733 537,733 537,733 537,733 537,733 537,733 538,733 538,733 538,733 538,733 538,733 538,733 538,733 538,733 538,733 538,733 539,733 539,733 539,733 539,733 539,733 539,733 539,733 539,733 539,733 540,733 540,733 540,733 540,733 540,733 540,733 540,733 540,733 540,733 540,733 541,733 541,733 541,733 541,733 541,733 541,733 541,733 541,733 541,733 542,733 542,733 542,733 542,733 542,733 542,733 542,733 542,733 542,733 542,733 543,733 543,733 543,733 543,733 543,733 543,733 543,733 543,733 543,733 543,733 544,733 544,733 544,733 544,733 544,733 544,733 544,733 544,733 544,733 545,733 545,733 545,733 545,733 545,733 545,733 545,733 545,733 545,733 545,733 546,733 546,733 546,733 546,733 546,733 546,733 546,733 546,733 546,733 546,733 547,733 547,733 547,733 547,733 547,733 547,733 547,733 547,733 547,733 548,733 548,733 548,733 548,733 548,733 548,733 548,733 548,733 548,733 548,733 549,733 549,733 549,733 549,733 549,733 549,733 549,733 549,733 549,733 550,733 550,733 550,733 550,733 550,733 550,733 550,733 550,733 550,733 550,733 551,733 551,733 551,733 551,733 551,733 551,733 551,733 551,733 551,733 551,733 552,733 552,733 552,733 552,733 552,733 552,733 552,733 552,733 552,733 553,733 553,733 553,733 553,733 553,733 553,733 553,733 553,733 553,733 553,733 554,733 554,733 554,733 554,733 554,733 554,733 554,733 554,733 554,733 555,733 555,733 555,733 555,733 555,733 555,733 555,733 555,733 555,733 555,733 556,733 556,733 556,733 556,733 556,733 556,733 556,733 556,733 556,733 556,733 557,733 557,733 557,733 557,733 557,733 557,733 557,733 557,733 557,733 558,733 558,733 558,733 558,733 558,733 558,733 558,733 558,733 558,733 558,733 559,733 559,733 559,733 559,733 559,733 559,733 559,733 559,733 559,733 559,733 560,733 560,733 560,733 560,733 560,733 560,733 560,733 560,733 560,733 561,733 561,733 561,733 561,733 561,733 561,733 561,733 561,733 561,733 561,733 562,733 562,733 562,733 562,733 562,733 562,733 562,733 562,733 562,733 563,733 563,733 563,733 563,733 563,733 563,733 563,733 563,733 563,733 563,733 564,733 564,733 564,733 564,733 564,733 564,733 564,733 564,733 564,733 564,733 565,733 565,733 565,733 565,733 565,733 565,733 565,733 565,733 565,733 566,733 566,733 566,733 566,733 566,733 566,733 566,733 566,733 566,733 566,733 567,733 567,733 567,733 567,733 567,733 567,733 567,733 567,733 567,733 568,733 568,733 568,733 568,733 568,733 568,733 568,733 568,733 568,733 568,733 569,733 569,733 569,733 569,733 569,733 569,733 569,733 569,733 569,733 569,733 570,733 570,733 570,733 570,733 570,733 570,733 570,733 570,733 570,733 571,733 571,733 571,733 571,733 571,733 571,733 571,733 571,733 571,733 571,733 572,733 572,733 572,733 572,733 572,733 572,733 572,733 572,733 572,733 572,733 573,733 573,733 573,733 573,733 573,733 573,733 573,733 573,733 573,733 574,733 574,733 574,733 574,733 574,733 574,733 574,733 574,733 574,733 574,733 575,733 575,733 575,733 575,733 575,733 575,733 575,733 575,733 575,733 576,733 576,733 576,733 576,733 576,733 576,733 576,733 576,733 576,733 576,733 577,733 577,733 577,733 577,733 577,733 577,733 577,733 577,733 577,733 577,733 578,733 578,733 578,733 578,733 578,733 578,733 578,733 578,733 578,733 579,733 579,733 579,733 579,733 579,733 579,733 579,733 579,733 579,733 579,733 580,733 580,733 580,733 580,733 580,733 580,733 580,733 580,733 580,733 581,733 581,733 581,733 581,733 581,733 581,733 581,733 581,733 581,733 581,733 582,733 582,733 582,733 582,733 582,733 582,733 582,733 582,733 582,733 582,733 583,733 583,733 583,733 583,733 583,733 583,733 583,733 583,733 583,733 584,733 584,733 584,733 584,733 584,733 584,733 584,733 584,733 584,733 584,733 585,733 585,733 585,733 585,733 585,733 585,733 585,733 585,733 585,733 585,733 586,733 586,733 586,733 586,733 586,733 586,733 586,733 586,733 586,733 587,733 587,733 587,733 587,733 587,733 587,733 587,733 587,733 587,733 587,733 588,733 588,733 588,733 588,733 588,733 588,733 588,733 588,733 588,733 589,733 589,733 589,733 589,733 589,733 589,733 589,733 589,733 589,733 589,733 590,733 590,733 590,733 590,733 590,733 590,733 590,733 590,733 590,733 590,733 591,733 591,733 591,733 591,733 591,733 591,733 591,733 591,733 591,733 592,733 592,733 592,733 592,733 592,733 592,733 592,733 592,733 592,733 592,733 593,733 593,733 593,733 593,733 593,733 593,733 593,733 593,733 593,733 594,733 594,733 594,733 594,733 594,733 594,733 594,733 594,733 594,733 594,733 595,733 595,733 595,733 595,733 595,733 595,733 595,733 595,733 595,733 595,733 596,733 596,733 596,733 596,733 596,733 596,733 596,733 596,733 596,733 597,733 597,733 597,733 597,733 597,733 597,733 597,733 597,733 597,733 597,733 598,733 598,733 598,733 598,733 598,733 598,733 598,733 598,733 598,733 598,733 599,733 599,733 599,733 599,733 599,733 599,733 599,733 599,733 599,733 600,733 600,733 600,733 600,733 600,733 600,733 600,733 600,733 600,733 600,733 601,733 601,733 601,733 601,733 601,733 601,733 601,733 601,733 601,733 602,733 602,733 602,733 602,733 602,733 602,733 602,733 602,733 602,733 602,733 603,733 603,733 603,733 603,733 603,733 603,733 603,733 603,733 603,733 603,733 604,733 604,733 604,733 604,733 604,733 604,733 604,733 604,733 604,733 605,733 605,733 605,733 605,733 605,733 605,733 605,733 605,733 605,733 605,733 606,733 606,733 606,733 606,733 606,733 606,733 606,733 606,733 606,733 607,733 607,733 607,733 607,733 607,733 607,733 607,733 607,733 607,733 607,733 608,733 608,733 608,733 608,733 608,733 608,733 608,733 608,733 608,733 608,733 609,733 609,733 609,733 609,733 609,733 609,733 609,733 609,733 609,733 610,733 610,733 610,733 610,733 610,733 610,733 610,733 610,733 610,733 610,733 611,733 611,733 611,733 611,733 611,733 611,733 611,733 611,733 611,733 611,733 612,733 612,733 612,733 612,733 612,733 612,733 612,733 612,733 612,733 613,733 613,733 613,733 613,733 613,733 613,733 613,733 613,733 613,733 613,733 614,733 614,733 614,733 614,733 614,733 614,733 614,733 614,733 614,733 615,733 615,733 615,733 615,733 615,733 615,733 615,733 615,733 615,733 615,733 616,733 616,733 616,733 616,733 616,733 616,733 616,733 616,733 616,733 616,733 617,733 617,733 617,733 617,733 617,733 617,733 617,733 617,733 617,733 618,733 618,733 618,733 618,733 618,733 618,733 618,733 618,733 618,733 618,733 619,733 619,733 619,733 619,733 619,733 619,733 619,733 619,733 619,733 620,733 620,733 620,733 620,733 620,733 620,733 620,733 620,733 620,733 620,733 621,733 621,733 621,733 621,733 621,733 621,733 621,733 621,733 621,733 621,733 622,733 622,733 622,733 622,733 622,733 622,733 622,733 622,733 622,733 623,733 623,733 623,733 623,733 623,733 623,733 623,733 623,733 623,733 623,733 624,733 624,733 624,733 624,733 624,733 624,733 624,733 624,733 624,733 624,733 625,733 625,733 625,733 625,733 625,733 625,733 625,733 625,733 625,733 626,733 626,733 626,733 626,733 626,733 626,733 626,733 626,733 626,733 626,733 627,733 627,733 627,733 627,733 627,733 627,733 627,733 627,733 627,733 628,733 628,733 628,733 628,733 628,733 628,733 628,733 628,733 628,733 628,733 629,733 629,733 629,733 629,733 629,733 629,733 629,733 629,733 629,733 629,733 630,733 630,733 630,733 630,733 630,733 630,733 630,733 630,733 630,733 631,733 631,733 631,733 631,733 631,733 631,733 631,733 631,733 631,733 631,733 632,733 632,733 632,733 632,733 632,733 632,733 632,733 632,733 632,733 633,733 633,733 633,733 633,733 633,733 633,733 633,733 633,733 633,733 633,733 634,733 634,733 634,733 634,733 634,733 634,733 634,733 634,733 634,733 634,733 635,733 635,733 635,733 635,733 635,733 635,733 635,733 635,733 635,733 636,733 636,733 636,733 636,733 636,733 636,733 636,733 636,733 636,733 636,733 637,733 637,733 637,733 637,733 637,733 637,733 637,733 637,733 637,733 637,733 638,733 638,733 638,733 638,733 638,733 638,733 638,733 638,733 638,733 639,733 639,733 639,733 639,733 639,733 639,733 639,733 639,733 639,733 639,733 640,733 640,733 640,733 640,733 640,733 640,733 640,733 640,733 640,733 641,733 641,733 641,733 641,733 641,733 641,733 641,733 641,733 641,733 641,733 642,733 642,733 642,733 642,733 642,733 642,733 642,733 642,733 642,733 642,733 643,733 643,733 643,733 643,733 643,733 643,733 643,733 643,733 643,733 644,733 644,733 644,733 644,733 644,733 644,733 644,733 644,733 644,733 644,733 645,733 645,733 645,733 645,733 645,733 645,733 645,733 645,733 645,733 646,733 646,733 646,733 646,733 646,733 646,733 646,733 646,733 646,733 646,733 647,733 647,733 647,733 647,733 647,733 647,733 647,733 647,733 647,733 647,733 648,733 648,733 648,733 648,733 648,733 648,733 648,733 648,733 648,733 649,733 649,733 649,733 649,733 649,733 649,733 649,733 649,733 649,733 649,733 650,733 650,733 650,733 650,733 650,733 650,733 650,733 650,733 650,733 650,733 651,733 651,733 651,733 651,733 651,733 651,733 651,733 651,733 651,733 652,733 652,733 652,733 652,733 652,733 652,733 652,733 652,733 652,733 652,733 653,733 653,733 653,733 653,733 653,733 653,733 653,733 653,733 653,733 654,733 654,733 654,733 654,733 654,733 654,733 654,733 654,733 654,733 654,733 655,733 655,733 655,733 655,733 655,733 655,733 655,733 655,733 655,733 655,733 656,733 656,733 656,733 656,733 656,733 656,733 656,733 656,733 656,733 657,733 657,733 657,733 657,733 657,733 657,733 657,733 657,733 657,733 657,733 658,733 658,733 658,733 658,733 658,733 658,733 658,733 658,733 658,733 659,733 659,733 659,733 659,733 659,733 659,733 659,733 659,733 659,733 659,733 660,733 660,733 660,733 660,733 660,733 660,733 660,733 660,733 660,733 660,733 661,733 661,733 661,733 661,733 661,733 661,733 661,733 661,733 661,733 662,733 662,733 662,733 662,733 662,733 662,733 662,733 662,733 662,733 662,733 663,733 663,733 663,733 663,733 663,733 663,733 663,733 663,733 663,733 663,733 664,733 664,733 664,733 664,733 664,733 664,733 664,733 664,733 664,733 665,733 665,733 665,733 665,733 665,733 665,733 665,733 665,733 665,733 665,733 666,733 666,733 666,733 666,733 666,733 666,733 666,733 666,733 666,733 667,733 667,733 667,733 667,733 667,733 667,733 667,733 667,733 667,733 667,733 668,733 668,733 668,733 668,733 668,733 668,733 668,733 668,733 668,733 668,733 669,733 669,733 669,733 669,733 669,733 669,733 669,733 669,733 669,733 670,733 670,733 670,733 670,733 670,733 670,733 670,733 670,733 670,733 670,733 671,733 671,733 671,733 671,733 671,733 671,733 671,733 671,733 671,733 672,733 672,733 672,733 672,733 672,733 672,733 672,733 672,733 672,733 672,733 673,733 673,733 673,733 673,733 673,733 673,733 673,733 673,733 673,733 673,733 674,733 674,733 674,733 674,733 674,733 674,733 674,733 674,733 674,733 675,733 675,733 675,733 675,733 675,733 675,733 675,733 675,733 675,733 675,733 676,733 676,733 676,733 676,733 676,733 676,733 676,733 676,733 676,733 676,733 677,733 677,733 677,733 677,733 677,733 677,733 677,733 677,733 677,733 678,733 678,733 678,733 678,733 678,733 678,733 678,733 678,733 678,733 678,733 679,733 679,733 679,733 679,733 679,733 679,733 679,733 679,733 679,733 680,733 680,733 680,733 680,733 680,733 680,733 680,733 680,733 680,733 680,733 681,733 681,733 681,733 681,733 681,733 681,733 681,733 681,733 681,733 681,733 682,733 682,733 682,733 682,733 682,733 682,733 682,733 682,733 682,733 683,733 683,733 683,733 683,733 683,733 683,733 683,733 683,733 683,733 683,733 684,733 684,733 684,733 684,733 684,733 684,733 684,733 684,733 684,733 685,733 685,733 685,733 685,733 685,733 685,733 685,733 685,733 685,733 685,733 686,733 686,733 686,733 686,733 686,733 686,733 686,733 686,733 686,733 686,733 687,733 687,733 687,733 687,733 687,733 687,733 687,733 687,733 687,733 688,733 688,733 688,733 688,733 688,733 688,733 688,733 688,733 688,733 688,733 689,733 689,733 689,733 689,733 689,733 689,733 689,733 689,733 689,733 689,733 690,733 690,733 690,733 690,733 690,733 690,733 690,733 690,733 690,733 691,733 691,733 691,733 691,733 691,733 691,733 691,733 691,733 691,733 691,733 692,733 692,733 692,733 692,733 692,733 692,733 692,733 692,733 692,733 693,733 693,733 693,733 693,733 693,733 693,733 693,733 693,733 693,733 693,733 694,733 694,733 694,733 694,733 694,733 694,733 694,733 694,733 694,733 694,733 695,733 695,733 695,733 695,733 695,733 695,733 695,733 695,733 695,733 696,733 696,733 696,733 696,733 696,733 696,733 696,733 696,733 696,733 696,733 697,733 697,733 697,733 697,733 697,733 697,733 697,733 697,733 697,733 698,733 698,733 698,733 698,733 698,733 698,733 698,733 698,733 698,733 698,733 699,733 699,733 699,733 699,733 699,733 699,733 699,733 699,733 699,733 699,733 700,733 700,733 700,733 700,733 700,733 700,733 700,733 700,733 700,733 701,733 701,733 701,733 701,733 701,733 701,733 701,733 701,733 701,733 701,733 702,733 702,733 702,733 702,733 702,733 702,733 702,733 702,733 702,733 702,733 703,733 703,733 703,733 703,733 703,733 703,733 703,733 703,733 703,733 704,733 704,733 704,733 704,733 704,733 704,733 704,733 704,733 704,733 704,733 705,733 705,733 705,733 705,733 705,733 705,733 705,733 705,733 705,733 706,733 706,733 706,733 706,733 706,733 706,733 706,733 706,733 706,733 706,733 707,733 707,733 707,733 707,733 707,733 707,733 707,733 707,733 707,733 707,733 708,733 708,733 708,733 708,733 708,733 708,733 708,733 708,733 708,733 709,733 709,733 709,733 709,733 709,733 709,733 709,733 709,733 709,733 709,733 710,733 710,733 710,733 710,733 710,733 710,733 710,733 710,733 710,733 711,733 711,733 711,733 711,733 711,733 711,733 711,733 711,733 711,733 711,733 712,733 712,733 712,733 712,733 712,733 712,733 712,733 712,733 712,733 712,733 713,733 713,733 713,733 713,733 713,733 713,733 713,733 713,733 713,733 714,733 714,733 714,733 714,733 714,733 714,733 714,733 714,733 714,733 714,733 715,733 715,733 715,733 715,733 715,733 715,733 715,733 715,733 715,733 715,733 716,733 716,733 716,733 716,733 716,733 716,733 716,733 716,733 716,733 717,733 717,733 717,733 717,733 717,733 717,733 717,733 717,733 717,733 717,733 718,733 718,733 718,733 718,733 718,733 718,733 718,733 718,733 718,733 719,733 719,733 719,733 719,733 719,733 719,733 719,733 719,733 719,733 719,733 720,733 720,733 720,733 720,733 720,733 720,733 720,733 720,733 720,733 720,733 721,733 721,733 721,733 721,733 721,733 721,733 721,733 721,733 721,733 722,733 722,733 722,733 722,733 722,733 722,733 722,733 722,733 722,733 722,733 723,733 723,733 723,733 723,733 723,733 723,733 723,733 723,733 723,733 724,733 724,733 724,733 724,733 724,733 724,733 724,733 724,733 724,733 724,733 725,733 725,733 725,733 725,733 725,733 725,733 725,733 725,733 725,733 725,733 726,733 726,733 726,733 726,733 726,733 726,733 726,733 726,733 726,733 727,733 727,733 727,733 727,733 727,733 727,733 727,733 727,733 727,733 727,733 728,733 728,733 728,733 728,733 728,733 728,733 728,733 728,733 728,733 728,733 729,733 729,733 729,733 729,733 729,733 729,733 729,733 729,733 729,733 730,733 730,733 730,733 730,733 730,733 730,733 730,733 730,733 730,733 730,733 731,733 731,733 731,733 731,733 731,733 731,733 731,733 731,733 731,733 732,733 732,733 732,733 732,733 732,733 732,733 732,733 732,733 732,733 732,733 733,733 733,733 733,733 733,733 733,733 733,733 733,733 733,733 733,733 733,733 734,733 734,733 734,733 734,733 734,733 734,733 734,733 734,733 734,733 735,733 735,733 735,733 735,733 735,733 735,733 735,733 735,733 735,733 735,733 736,733 736,733 736,733 736,733 736,733 736,733 736,733 736,733 736,733 737,733 737,733 737,733 737,733 737,733 737,733 737,733 737,733 737,733 737,733 738,733 738,733 738,733 738,733 738,733 738,733 738,733 738,733 738,733 738,733 739,733 739,733 739,733 739,733 739,733 739,733 739,733 739,733 739,733 740,733 740,733 740,733 740,733 740,733 740,733 740,733 740,733 740,733 740,733 741,733 741,733 741,733 741,733 741,733 741,733 741,733 741,733 741,733 741,733 742,733 742,733 742,733 742,733 742,733 742,733 742,733 742,733 742,733 743,733 743,733 743,733 743,733 743,733 743,733 743,733 743,733 743,733 743,733 744,733 744,733 744,733 744,733 744,733 744,733 744,733 744,733 744,733 745,733 745,733 745,733 745,733 745,733 745,733 745,733 745,733 745,733 745,733 746,733 746,733 746,733 746,733 746,733 746,733 746,733 746,733 746,733 746,733 747,733 747,733 747,733 747,733 747,733 747,733 747,733 747,733 747,733 748,733 748,733 748,733 748,733 748,733 748,733 748,733 748,733 748,733 748,733 749,733 749,733 749,733 749,733 749,733 749,733 749,733 749,733 749,733 750,733 750,733 750,733 750,733 750,733 750,733 750,733 750,733 750,733 750,733 751,733 751,733 751,733 751,733 751,733 751,733 751,733 751,733 751,733 751,733 752,733 752,733 752,733 752,733 752,733 752,733 752,733 752,733 752,733 753,733 753,733 753,733 753,733 753,733 753,733 753,733 753,733 753,733 753,733 754,733 754,733 754,733 754,733 754,733 754,733 754,733 754,733 754,733 754,733 755,733 755,733 755,733 755,733 755,733 755,733 755,733 755,733 755,733 756,733 756,733 756,733 756,733 756,733 756,733 756,733 756,733 756,733 756,733 757,733 757,733 757,733 757,733 757,733 757,733 757,733 757,733 757,733 758,733 758,733 758,733 758,733 758,733 758,733 758,733 758,733 758,733 758,733 759,733 759,733 759,733 759,733 759,733 759,733 759,733 759,733 759,733 759,733 760,733 760,733 760,733 760,733 760,733 760,733 760,733 760,733 760,733 761,733 761,733 761,733 761,733 761,733 761,733 761,733 761,733 761,733 761,733 762,733 762,733 762,733 762,733 762,733 762,733 762,733 762,733 762,733 763,733 763,733 763,733 763,733 763,733 763,733 763,733 763,733 763,733 763,733 764,733 764,733 764,733 764,733 764,733 764,733 764,733 764,733 764,733 764,733 765,733 765,733 765,733 765,733 765,733 765,733 765,733 765,733 765,733 766,733 766,733 766,733 766,733 766,733 766,733 766,733 766,733 766,733 766,733 767,733 767,733 767,733 767,733 767,733 767,733 767,733 767,733 767,733 767,733 768,733 768,733 768,733 768,733 768,733 768,733 768,733 768,733 768,733 769,733 769,733 769,733 769,733 769,733 769,733 769,733 769,733 769,733 769,733 770,733 770,733 770,733 770,733 770,733 770,733 770,733 770,733 770,733 771,733 771,733 771,733 771,733 771,733 771,733 771,733 771,733 771,733 771,733 772,733 772,733 772,733 772,733 772,733 772,733 772,733 772,733 772,733 772,733 773,733 773,733 773,733 773,733 773,733 773,733 773,733 773,733 773,733 774,733 774,733 774,733 774,733 774,733 774,733 774,733 774,733 774,733 774,733 775,733 775,733 775,733 775,733 775,733 775,733 775,733 775,733 775,733 776,733 776,733 776,733 776,733 776,733 776,733 776,733 776,733 776,733 776,733 777,733 777,733 777,733 777,733 777,733 777,733 777,733 777,733 777,733 777,733 778,733 778,733 778,733 778,733 778,733 778,733 778,733 778,733 778,733 779,733 779,733 779,733 779,733 779,733 779,733 779,733 779,733 779,733 779,733 780,733 780,733 780,733 780,733 780,733 780,733 780,733 780,733 780,733 780,733 781,733 781,733 781,733 781,733 781,733 781,733 781,733 781,733 781,733 782,733 782,733 782,733 782,733 782,733 782,733 782,733 782,733 782,733 782,733 783,733 783,733 783,733 783,733 783,733 783,733 783,733 783,733 783,733 784,733 784,733 784,733 784,733 784,733 784,733 784,733 784,733 784,733 784,733 785,733 785,733 785,733 785,733 785,733 785,733 785,733 785,733 785,733 785,733 786,733 786,733 786,733 786,733 786,733 786,733 786,733 786,733 786,733 787,733 787,733 787,733 787,733 787,733 787,733 787,733 787,733 787,733 787,733 788,733 788,733 788,733 788,733 788,733 788,733 788,733 788,733 788,733 789,733 789,733 789,733 789,733 789,733 789,733 789,733 789,733 789,733 789,733 790,733 790,733 790,733 790,733 790,733 790,733 790,733 790,733 790,733 790,733 791,733 791,733 791,733 791,733 791,733 791,733 791,733 791,733 791,733 792,733 792,733 792,733 792,733 792,733 792,733 792,733 792,733 792,733 792,733 793,733 793,733 793,733 793,733 793,733 793,733 793,733 793,733 793,733 793,733 794,733 794,733 794,733 794,733 794,733 794,733 794,733 794,733 794,733 795,733 795,733 795,733 795,733 795,733 795,733 795,733 795,733 795,733 795,733 796,733 796,733 796,733 796,733 796,733 796,733 796,733 796,733 796,733 797,733 797,733 797,733 797,733 797,733 797,733 797,733 797,733 797,733 797,733 798,733 798,733 798,733 798,733 798,733 798,733 798,733 798,733 798,733 798,733 799,733 799,733 799,733 799,733 799,733 799,733 799,733 799,733 799,733 800,733 800,733 800,733 800,733 800,733 800,733 800,733 800,733 800,733 800,733 801,733 801,733 801,733 801,733 801,733 801,733 801,733 801,733 801,733 802,733 802,733 802,733 802,733 802,733 802,733 802,733 802,733 802,733 802,733 803,733 803,733 803,733 803,733 803,733 803,733 803,733 803,733 803,733 803,733 804,733 804,733 804,733 804,733 804,733 804,733 804,733 804,733 804,733 805,733 805,733 805,733 805,733 805,733 805,733 805,733 805,733 805,733 805,733 806,733 806,733 806,733 806,733 806,733 806,733 806,733 806,733 806,733 806,733 807,733 807,733 807,733 807,733 807,733 807,733 807,733 807,733 807,733 808,733 808,733 808,733 808,733 808,733 808,733 808,733 808,733 808,733 808,733 809,733 809,733 809,733 809,733 809,733 809,733 809,733 809,733 809,733 810,733 810,733 810,733 810,733 810,733 810,733 810,733 810,733 810,733 810,733 811,733 811,733 811,733 811,733 811,733 811,733 811,733 811,733 811,733 811,733 812,733 812,733 812,733 812,733 812,733 812,733 812,733 812,733 812,733 813,733 813,733 813,733 813,733 813,733 813,733 813,733 813,733 813,733 813,733 814,733 814,733 814,733 814,733 814,733 814,733 814,733 814,733 814,733 815,733 815,733 815,733 815,733 815,733 815,733 815,733 815,733 815,733 815,732 816,732 816,731 816,731 816,731 816,730 816,730 816,730 816,729 816,729 816,728 817,728 817,728 817,727 817,727 817,726 817,726 817,726 817,725 817,725 818,724 818,724 818,724 818,723 818,723 818,722 818,722 818,722 818,721 818,721 819,720 819,720 819,720 819,719 819,719 819,719 819,718 819,718 819,717 819,717 820,717 820,716 820,716 820,715 820,715 820,715 820,714 820,714 820,713 821,713 821,713 821,712 821,712 821,711 821,711 821,711 821,710 821,710 821,710 822,709 822,709 822,708 822,708 822,708 822,707 822,707 822,706 822,706 823,706 823,705 823,705 823,704 823,704 823,704 823,703 823,703 823,702 823,702 824,702 824,701 824,701 824,700 824,700 824,700 824,699 824,699 824,699 824,698 825,698 825,697 825,697 825,697 825,696 825,696 825,695 825,695 825,695 826,694 826,694 826,693 826,693 826,693 826,692 826,692 826,691 826,691 826,691 827,690 827,690 827,690 827,689 827,689 827,688 827,688 827,688 827,687 828,687 828,686 828,686 828,686 828,685 828,685 828,684 828,684 828,684 828,683 829,683 829,682 829,682 829,682 829,681 829,681 829,680 829,680 829,680 829,679 830,679 830,679 830,678 830,678 830,677 830,677 830,677 830,676 830,676 831,675 831,675 831,675 831,674 831,674 831,673 831,673 831,673 831,672 831,672 832,671 832,671 832,671 832,670 832,670 832,669 832,669 832,669 832,668 832,668 833,668 833,667 833,667 833,666 833,666 833,666 833,665 833,665 833,664 834,664 834,664 834,663 834,663 834,662 834,662 834,662 834,661 834,661 834,660 835,660 835,660 835,659 835,659 835,659 835,658 835,658 835,657 835,657 836,657 836,656 836,656 836,655 836,655 836,655 836,654 836,654 836,653 836,653 837,653 837,652 837,652 837,651 837,651 837,651 837,650 837,650 837,649 837,649 838,649 838,648 838,648 838,648 838,647 838,647 838,646 838,646 838,646 839,645 839,645 839,644 839,644 839,644 839,643 839,643 839,642 839,642 839,642 840,641 840,641 840,640 840,640 840,640 840,639 840,639 840,638 840,638 841,638 841,637 841,637 841,637 841,636 841,636 841,635 841,635 841,635 841,634 842,634 842,633 842,633 842,633 842,632 842,632 842,631 842,631 842,631 842,630 843,630 843,629 843,629 843,629 843,628 843,628 843,628 843,627 843,627 844,626 844,626 844,626 844,625 844,625 844,624 844,624 844,624 844,623 844,623 845,622 845,622 845,622 845,621 845,621 845,620 845,620 845,620 845,619 845,619 846,618 846,618 846,618 846,617 846,617 846,617 846,616 846,616 846,615 847,615 847,615 847,614 847,614 847,613 847,613 847,613 847,612 847,612 847,611 848,611 848,611 848,610 848,610 848,609 848,609 848,609 848,608 848,608 849,608 849,607 849,607 849,606 849,606 849,606 849,605 849,605 849,604 849,604 850,604 850,603 850,603 850,602 850,602 850,602 850,601 850,601 850,600 850,600 851,600 851,599 851,599 851,598 851,598 851,598 851,597 851,597 851,597 852,596 852,596 852,595 852,595 852,595 852,594 852,594 852,593 852,593 852,593 853,592 853,592 853,591 853,591 853,591 853,590 853,590 853,589 853,589 854,589 854,588 854,588 854,587 854,587 854,587 854,586 854,586 854,586 854,585 855,585 855,584 855,584 855,584 855,583 855,583 855,582 855,582 855,582 855,581 856,581 856,580 856,580 856,580 856,579 856,579 856,578 856,578 856,578 857,577 857,577 857,577 857,576 857,576 857,575 857,575 857,575 857,574 857,574 858,573 858,573 858,573 858,572 858,572 858,571 858,571 858,571 858,570 858,570 859,569 859,569 859,569 859,568 859,568 859,567 859,567 859,567 859,566 860,566 860,566 860,565 860,565 860,564 860,564 860,564 860,563 860,563 860,562 861,562 861,562 861,561 861,561 861,560 861,560 861,560 861,559 861,559 862,558 862,558 862,558 862,557 862,557 862,557 862,556 862,556 862,555 862,555 863,555 863,554 863,554 863,553 863,553 863,553 863,552 863,552 863,551 863,551 864,551 864,550 864,550 864,549 864,549 864,549 864,548 864,548 864,547 865,547 865,547 865,546 865,546 865,546 865,545 865,545 865,544 865,544 865,544 866,543 866,543 866,542 866,542 866,542 866,541 866,541 866,540 866,540 867,540 867,539 867,539 867,538 867,538 867,538 867,537 867,537 867,536 867,536 868,536 868,535 868,535 868,535 868,534 868,534 868,533 868,533 868,533 868,532 869,532 869,531 869,531 869,531 869,530 869,530 869,529 869,529 869,529 870,528 870,528 870,527 870,527 870,527 870,526 870,526 870,526 870,525 870,525 871,524 871,524 871,524 871,523 871,523 871,522 871,522 871,522 871,521 871,521 872,520 872,520 872,520 872,519 872,519 872,518 872,518 872,518 872,517 873,517 873,516 873,516 873,516 873,515 873,515 873,515 873,514 873,514 873,513 874,513 874,513 874,512 874,512 874,511 874,511 874,511 874,510 874,510 875,509 875,509 875,509 875,508 875,508 875,507 875,507 875,507 875,506 875,506 876,505 876,505 876,505 876,504 876,504 876,504 876,503 876,503 876,502 876,502 877,502 877,501 877,501 877,500 877,500 877,500 877,499 877,499 877,498 878,498 878,498 878,497 878,497 878,496 878,496 878,496 878,495 878,495 878,495 879,494 879,494 879,493 879,493 879,493 879,492 879,492 879,491 879,491 880,491 880,490 880,490 880,489 880,489 880,489 880,488 880,488 880,487 880,487 881,487 881,486 881,486 881,485 881,485 881,485 881,484 881,484 881,484 881,483 882,483 882,482 882,482 882,482 882,481 882,481 882,480 882,480 882,480 883,479 883,479 883,478 883,478 883,478 883,477 883,477 883,476 883,476 883,476 884,475 884,475 884,475 884,474 884,474 884,473 884,473 884,473 884,472 884,472 885,471 885,471 885,471 885,470 885,470 885,469 885,469 885,469 885,468 886,468 886,467 886,467 886,467 886,466 886,466 886,465 886,465 886,465 886,464 887,464 887,464 887,463 887,463 887,462 887,462 887,462 887,461 887,461 888,460 888,460 888,460 888,459 888,459 888,458 888,458 888,458 888,457 888,457 889,456 889,456 889,456 889,455 889,455 889,454 889,454 889,454 889,453 889,453 890,453 890,452 890,452 890,451 890,451 890,451 890,450 890,450 890,449 891,449 891,449 891,448 891,448 891,447 891,447 891,447 891,446 891,446 891,445 892,445 892,445 892,444 892,444 892,444 892,443 892,443 892,442 892,442 893,442 893,441 893,441 893,440 893,440 893,440 893,439 893,439 893,438 893,438 894,438 894,437 894,437 894,436 894,436 894,436 894,435 894,435 894,434 894,434 895,434 895,433 895,433 895,433 895,432 895,432 895,431 895,431 895,431 896,430 896,430 896,429 896,429 896,429 896,428 896,428 896,427 896,427 896,427 897,426 897,426 897,425 897,425 897,425 897,424 897,424 897,424 897,423 897,423 898,422 898,422 898,422 898,421 898,421 898,420 898,420 898,420 898,419 899,419 899,418 899,418 899,418 899,417 899,417 899,416 899,416 899,416 899,415 900,415 900,414 900,414 900,414 900,413 900,413 900,413 900,412 900,412 901,411 901,411 901,411 901,410 901,410 901,409 901,409 901,409 901,408 901,408 902,407 902,407 902,407 902,406 902,406 902,405 902,405 902,405 902,404 902,404 903,403 903,403 903,403 903,402 903,402 903,402 903,401 903,401 903,400 904,400 904,400 904,399 904,399 904,398 904,398 904,398 904,397 904,397 904,396 905,396 905,396 905,395 905,395 905,394 905,394 905,394 905,393 905,393 906,393 906,392 906,392 906,391 906,391 906,391 906,390 906,390 906,389 906,389 907,389 907,388 907,388 907,387 907,387 907,387 907,386 907,386 907,385 907,385 908,385 908,384 908,384 908,383 908,383 908,383 908,382 908,382 908,382 909,381 909,381 909,380 909,380 909,380 909,379 909,379 909,378 909,378 909,378 910,377 910,377 910,376 910,376 910,376 910,375 910,375 910,374 910,374 910,374 911,373 911,373 911,372 911,372 911,372 911,371 911,371 911,371 911,370 912,370 912,369 912,369 912,369 912,368 912,368 912,367 912,367 912,367 912,366 913,366 913,365 913,365 913,365 913,364 913,364 913,363 913,363 913,363 914,362 914,362 914,362 914,361 914,361 914,360 914,360 914,360 914,359 914,359 915,358 915,358 915,358 915,357 915,357 915,356 915,356 915,356 915,355 915,355 916,354 916,354 916,354 916,353 916,353 916,352 916,352 916,352 916,351 917,351 917,351 917,350 917,350 917,349 917,349 917,349 917,348 917,348 917,347 918,347 918,347 918,346 918,346 918,345 918,345 918,345 918,344 918,344 919,343 919,343 919,343 919,342 919,342 919,342 919,341 919,341 919,340 919,340 920,340 920,339 920,339 920,338 920,338 920,338 920,337 920,337 920,336 920,336 921,336 921,335 921,335 921,334 921,334 921,334 921,333 921,333 921,332 922,332 922,332 922,331 922,331 922,331 922,330 922,330 922,329 922,329 922,329 923,328 923,328 923,327 923,327 923,327 923,326 923,326 923,325 923,325 923,325 924,324 924,324 924,323 924,323 924,323 924,322 924,322 924,321 924,321 925,321 925,320 925,320 925,320 925,319 925,319 925,318 925,318 925,318 925,317 926,317 926,316 926,316 926,316 926,315 926,315 926,314 926,314 926,314 927,313 927,313 927,312 927,312 927,312 927,311 927,311 927,311 927,310 927,310 928,309 928,309 928,309 928,308 928,308 928,307 928,307 928,307 928,306 928,306 929,305 929,305 929,305 929,304 929,304 929,303 929,303 929,303 929,302 930,302 930,301 930,301 930,301 930,300 930,300 930,300 930,299 930,299 930,298 931,298 931,298 931,297 931,297 931,296 931,296 931,296 931,295 931,295 932,294 932,294 932,294 932,293 932,293 932,292 932,292 932,292 932,291 932,291 933,291 933,290 933,290 933,289 933,289 933,289 933,288 933,288 933,287 933,287 934,287 934,286 934,286 934,285 934,285 934,285 934,284 934,284 934,283 935,283 935,283 935,282 935,282 935,281 935,281 935,281 935,280 935,280 935,280 936,279 936,279 936,278 936,278 936,278 936,277 936,277 936,276 936,276 936,276 937,275 937,275 937,274 937,274 937,274 937,273 937,273 937,272 937,272 938,272 938,271 938,271 938,270 938,270 938,270 938,269 938,269 938,269 938,268 939,268 939,267 939,267 939,267 939,266 939,266 939,265 939,265 939,265 940,264 940,264 940,263 940,263 940,263 940,262 940,262 940,261 940,261 940,261 941,260 941,260 941,260 941,259 941,259 941,258 941,258 941,258 941,257 941,257 942,256 942,256 942,256 942,255 942,255 942,254 942,254 942,254 942,253 943,253 943,252 943,252 943,252 943,251 943,251 943,250 943,250 943,250 943,249 944,249 944,249 944,248 944,248 944,247 944,247 944,247 944,246 944,246 945,245 945,245 945,245 945,244 945,244 945,243 945,243 945,243 945,242 945,242 946,241 946,241 946,241 946,240 946,240 946,239 946,239 946,239 946,238 946,238 947,238 947,237 947,237 947,236 947,236 947,236 947,235 947,235 947,234 948,234 948,234 948,233 948,233 948,232 948,232 948,232 948,231 948,231 948,230 949,230 949,230 949,229 949,229 949,229 949,228 949,228 949,227 949,227 949,227 950,226 950,226 950,225 950,225 950,225 950,224 950,224 950,223 950,223 951,223 951,222 951,222 951,221 951,221 951,221 951,220 951,220 951,219 951,219 952,219 952,218 952,218 952,218 952,217 952,217 952,216 952,216 952,216 953,215 953,215 953,214 953,214 953,214 953,213 953,213 953,212 953,212 953,212 954,211 954,211 954,210 954,210 954,210 954,209 954,209 954,209 954,208 954,208 955,207 955,207 955,207 955,206 955,206 955,205 955,205 955,205 955,204 956,204 956,203 956,203 956,203 956,202 956,202 956,201 956,201 956,201 956,200 957,200 957,199 957,199 957,199 957,198 957,198 957,198 957,197 957,197 958,196 958,196 958,196 958,195 958,195 958,194 958,194 958,194 958,193 958,193 959,192 959,192 959,192 959,191 959,191 959,190 959,190 959,190 959,189 959,189 960,188 960,188 960,188 960,187 960,187 960,187 960,186 960,186 960,185 961,185 961,185 961,184 961,184 961,183 961,183 961,183 961,182 961,182 961,181 962,181 962,181 962,180 962,180 962,179 962,179 962,179 962,178 962,178 962,178 963,177 963,177 963,176 963,176 963,176 963,175 963,175 963,174 963,174 964,174 964,173 964,173 964,172 964,172 964,172 964,171 964,171 964,170 964,170 965,170 965,169 965,169 965,168 965,168 965,168 965,167 965,167 965,167 966,166 966,166 966,165 966,165 966,165 966,164 966,164 966,163 966,163 966,163 967,162 967,162 967,161 967,161 967,161 967,160 967,160 967,159 967,159 967,159 968,158 968,158 968,158 968,157 968,157 968,156 968,156 968,156 968,155 969,155 969,154 969,154 969,154 969,153 969,153 969,152 969,152 969,152 969,151 970,151 970,150 970,150 970,150 970,149 970,149 970,148 970,148 970,148 971,147 971,147 971,147 971,146 971,146 971,145 971,145 971,145 971,144 971,144 972,143 972,143 972,143 972,142 972,142 972,141 972,141 972,141 972,140 972,140 973,139 973,139 973,139 973,138 973,138 973,137 973,137 973,137 973,136 974,136 974,136 974,135 974,135 974,134 974,134 974,134 974,133 974,133 974,132 975,132 975,132 975,131 975,131 975,130 975,130 975,130 975,129 975,129 975,128 976,128 976,128 976,127 976,127 976,127 976,126 976,126 976,125 976,125 977,125 977,124 977,124 977,123 977,123 977,123 977,122 977,122 977,121 977,121 978,121 978,120 978,120 978,119 978,119 978,119 978,118 978,118 978,117 979,117 979,117 979,116 979,116 979,116 979,115 979,115 979,114 979,114 979,114 980,113 980,113 980,112 980,112 980,112 980,111 980,111 980,110 980,110 980,110 981,109 981,109 981,108 981,108 981,108 981,107 981,107 981,106 981,106 982,106 982,105 982,105 982,105 982,104 982,104 982,103 982,103 982,103 982,102 983,102 983,101 983,101 983,101 983,100 983,100 983,99 983,99 983,99 984,98 984,98 984,97 984,97 984,97 984,96 984,96 984,96 984,95 984,95 985,94 985,94 985,94 985,93 985,93 985,92 985,92 985,92 985,91 985,91 986,90 986,90 986,90 986,89 986,89 986,88 986,88 986,88 986,87 987,87 987,86 987,86 987,86 987,85 987,85 987,85 987,84 987,84 987,83 988,83 988,83 988,82 988,82 988,81 988,81 988,81 988,80 988,80 988,79 989,79 989,79 989,78 989,78 989,77 989,77 989,77 989,76 989,76 990,76 990,75 990,75 990,74 990,74 990,74 990,73 990,73 990,72 990,72 991,72 991,71 991,71 991,70 991,70 991,70 991,69 991,69 991,68 992,68 992,68 992,67 992,67 992,66 992,66 992,66 992,65 992,65 992,65 993,64 993,64 993,63 993,63 993,63 993,62 993,62 993,61 993,61 993,61 994,60 994,60 994,59 994,59 994,59 994,58 994,58 994,57 994,57 995,57 995,56 995,56 995,55 995,55 995,55 995,54 995,54 995,54 995,53 996,53 996,52 996,52 996,52 996,51 996,51 996,50 996,50 996,50 997,49 997,49 997,48 997,48 997,48 997,47 997,47 997,46 997,46 997,46 998,45 998,45 998,45 998,44 998,44 998,43 998,43 998,43 998,42 998,42 999,41 999,41 999,41 999,40 999,40 999,39 999,39 999,39 999,38 1000,38 1000,37 1000,37 1000,37 1000,36 1000,36 1000,35 1000,35 1000,35 1000,34 1001,34 1001,34 1001,33 1001,33 1001,32 1001,32 1001,32 1001,31 1001,31 1001,30 1002,30 1002,30 1002,29 1002,29 1002,28 1002,28 1002,28 1002,27 1002,27 1003,26 1003,26 1003,26 1003,25 1003,25 1003,25 1003,24 1003,24 1003,23 1003,23 1004,23 1004,22 1004,22 1004,21 1004,21 1004,21 1004,20 1004,20 1004,19 1005,19 1005,19 1005,18 1005,18 1005,17 1005,17 1005,17 1005,16 1005,16 1005,15 1006,15 1006,15 1006,14 1006,14 1006,14 1006,13 1006,13 1006,12 1006,12 1006,12 1007,11 1007,11 1007,10 1007,10 1007,10 1007,9 1007,9 1007,8 1007,8 1008,8 1008,7 1008,7 1008,6 1008,6 1008,6 1008,5 1008,5 1008,4 1008,4 1009,4 1009,3 1009,3 1009,3 1009,2 1009,2 1009,1 1009,1 1009,1 1010,0 1010,0 1010,0 1010,0 1010,0 1010,0 1010,0 1010,0 1010,0 1010,0 1011,0 1011,0 1011,0 1011,0 1011,0 1011,0 1011,0 1011,0 1011,0 1011,0 1012,0 1012,0 1012,0 1012,0 1012,0 1012,0 1012,0 1012,0 1012,0 1013,0 1013,0 1013,0 1013,0 1013,0 1013,0 1013,0 1013,0 1013,0 1013,0 1014,0 1014,0 1014,0 1014,0 1014,0 1014,0 1014,0 1014,0 1014,0 1014,0 1015,0 1015,0 1015,0 1015,0 1015,0 1015,0 1015,0 1015,0 1015,0 1016,0 1016,0 1016,0 1016,0 1016,0 1016,0 1016,0 1016,0 1016,0 1016,0 1017,0 1017,0 1017,0 1017,0 1017,0 1017,0 1017,0 1017,0 1017,0 1018,0 1018,0 1018,0 1018,0 1018,0 1018,0 1018,0 1018,0 1018,0 1018,0 1019,0 1019,0 1019,0 1019,0 1019,0 1019,0 1019,0 1019,0 1019,0 1019,0 1020,0 1020,0 1020,0 1020,0 1020,0 1020,0 1020,0 1020,0 1020,0 1021,0 1021,0 1021,0 1021,0 1021,0 1021,0 1021,0 1021,0 1021,0 1021,0 1022,0 1022,0 1022,0 1022,0 1022,0 1022,0 1022,0 1022,0 1022,0 1023,0 "/>
<text x="0" y="366" dy="0.76em" text-anchor="middle" font-family="sans-serif" font-size="9.67741935483871" opacity="1" fill="#000000" transform="rotate(270, 0, 366)">
Actual Descent Angle (degrees)
</text>
<text x="529" y="768" dy="-0.5ex" text-anchor="middle" font-family="sans-serif" font-size="9.67741935483871" opacity="1" fill="#000000">
Reported Descent Angle (degrees)
</text>
<polyline fill="none" opacity="1" stroke="#000000" stroke-width="1" points="34,0 34,732 "/>
<text x="25" y="697" dy="0.5ex" text-anchor="end" font-family="sans-serif" font-size="9.67741935483871" opacity="1" fill="#000000">
170.0
</text>
<polyline fill="none" opacity="1" stroke="#000000" stroke-width="1" points="29,697 34,697 "/>
<text x="25" y="618" dy="0.5ex" text-anchor="end" font-family="sans-serif" font-size="9.67741935483871" opacity="1" fill="#000000">
172.0
</text>
<polyline fill="none" opacity="1" stroke="#000000" stroke-width="1" points="29,618 34,618 "/>
<text x="25" y="540" dy="0.5ex" text-anchor="end" font-family="sans-serif" font-size="9.67741935483871" opacity="1" fill="#000000">
174.0
</text>
<polyline fill="none" opacity="1" stroke="#000000" stroke-width="1" points="29,540 34,540 "/>
<text x="25" y="461" dy="0.5ex" text-anchor="end" font-family="sans-serif" font-size="9.67741935483871" opacity="1" fill="#000000">
176.0
</text>
<polyline fill="none" opacity="1" stroke="#000000" stroke-width="1" points="29,461 34,461 "/>
<text x="25" y="383" dy="0.5ex" text-anchor="end" font-family="sans-serif" font-size="9.67741935483871" opacity="1" fill="#000000">
178.0
</text>
<polyline fill="none" opacity="1" stroke="#000000" stroke-width="1" points="29,383 34,383 "/>
<text x="25" y="304" dy="0.5ex" text-anchor="end" font-family="sans-serif" font-size="9.67741935483871" opacity="1" fill="#000000">
180.0
</text>
<polyline fill="none" opacity="1" stroke="#000000" stroke-width="1" points="29,304 34,304 "/>
<text x="25" y="226" dy="0.5ex" text-anchor="end" font-family="sans-serif" font-size="9.67741935483871" opacity="1" fill="#000000">
182.0
</text>
<polyline fill="none" opacity="1" stroke="#000000" stroke-width="1" points="29,226 34,226 "/>
<text x="25" y="147" dy="0.5ex" text-anchor="end" font-family="sans-serif" font-size="9.67741935483871" opacity="1" fill="#000000">
184.0
</text>
<polyline fill="none" opacity="1" stroke="#000000" stroke-width="1" points="29,147 34,147 "/>
<text x="25" y="69" dy="0.5ex" text-anchor="end" font-family="sans-serif" font-size="9.67741935483871" opacity="1" fill="#000000">
186.0
</text>
<polyline fill="none" opacity="1" stroke="#000000" stroke-width="1" points="29,69 34,69 "/>
<polyline fill="none" opacity="1" stroke="#000000" stroke-width="1" points="35,733 1023,733 "/>
<text x="97" y="743" dy="0.76em" text-anchor="middle" font-family="sans-serif" font-size="9.67741935483871" opacity="1" fill="#000000">
100.0
</text>
<polyline fill="none" opacity="1" stroke="#000000" stroke-width="1" points="97,733 97,738 "/>
<text x="201" y="743" dy="0.76em" text-anchor="middle" font-family="sans-serif" font-size="9.67741935483871" opacity="1" fill="#000000">
110.0
</text>
<polyline fill="none" opacity="1" stroke="#000000" stroke-width="1" points="201,733 201,738 "/>
<text x="305" y="743" dy="0.76em" text-anchor="middle" font-family="sans-serif" font-size="9.67741935483871" opacity="1" fill="#000000">
120.0
</text>
<polyline fill="none" opacity="1" stroke="#000000" stroke-width="1" points="305,733 305,738 "/>
<text x="409" y="743" dy="0.76em" text-anchor="middle" font-family="sans-serif" font-size="9.67741935483871" opacity="1" fill="#000000">
130.0
</text>
<polyline fill="none" opacity="1" stroke="#000000" stroke-width="1" points="409,733 409,738 "/>
<text x="513" y="743" dy="0.76em" text-anchor="middle" font-family="sans-serif" font-size="9.67741935483871" opacity="1" fill="#000000">
140.0
</text>
<polyline fill="none" opacity="1" stroke="#000000" stroke-width="1" points="513,733 513,738 "/>
<text x="617" y="743" dy="0.76em" text-anchor="middle" font-family="sans-serif" font-size="9.67741935483871" opacity="1" fill="#000000">
150.0
</text>
<polyline fill="none" opacity="1" stroke="#000000" stroke-width="1" points="617,733 617,738 "/>
<text x="721" y="743" dy="0.76em" text-anchor="middle" font-family="sans-serif" font-size="9.67741935483871" opacity="1" fill="#000000">
160.0
</text>
<polyline fill="none" opacity="1" stroke="#000000" stroke-width="1" points="721,733 721,738 "/>
<text x="825" y="743" dy="0.76em" text-anchor="middle" font-family="sans-serif" font-size="9.67741935483871" opacity="1" fill="#000000">
170.0
</text>
<polyline fill="none" opacity="1" stroke="#000000" stroke-width="1" points="825,733 825,738 "/>
<text x="929" y="743" dy="0.76em" text-anchor="middle" font-family="sans-serif" font-size="9.67741935483871" opacity="1" fill="#000000">
180.0
</text>
<polyline fill="none" opacity="1" stroke="#000000" stroke-width="1" points="929,733 929,738 "/>
<line opacity="1" stroke="#000000" stroke-width="1" x1="34" y1="714" x2="36" y2="716"/>
<line opacity="1" stroke="#000000" stroke-width="1" x1="34" y1="716" x2="36" y2="714"/>
<line opacity="1" stroke="#000000" stroke-width="1" x1="970" y1="437" x2="972" y2="439"/>
<line opacity="1" stroke="#000000" stroke-width="1" x1="970" y1="439" x2="972" y2="437"/>
<line opacity="1" stroke="#000000" stroke-width="1" x1="928" y1="613" x2="930" y2="615"/>
<line opacity="1" stroke="#000000" stroke-width="1" x1="928" y1="615" x2="930" y2="613"/>
<line opacity="1" stroke="#000000" stroke-width="1" x1="928" y1="556" x2="930" y2="558"/>
<line opacity="1" stroke="#000000" stroke-width="1" x1="928" y1="558" x2="930" y2="556"/>
<line opacity="1" stroke="#000000" stroke-width="1" x1="710" y1="370" x2="712" y2="372"/>
<line opacity="1" stroke="#000000" stroke-width="1" x1="710" y1="372" x2="712" y2="370"/>
<line opacity="1" stroke="#000000" stroke-width="1" x1="928" y1="599" x2="930" y2="601"/>
<line opacity="1" stroke="#000000" stroke-width="1" x1="928" y1="601" x2="930" y2="599"/>
<line opacity="1" stroke="#000000" stroke-width="1" x1="720" y1="637" x2="722" y2="639"/>
<line opacity="1" stroke="#000000" stroke-width="1" x1="720" y1="639" x2="722" y2="637"/>
<line opacity="1" stroke="#000000" stroke-width="1" x1="1001" y1="377" x2="1003" y2="379"/>
<line opacity="1" stroke="#000000" stroke-width="1" x1="1001" y1="379" x2="1003" y2="377"/>
<line opacity="1" stroke="#000000" stroke-width="1" x1="190" y1="653" x2="192" y2="655"/>
<line opacity="1" stroke="#000000" stroke-width="1" x1="190" y1="655" x2="192" y2="653"/>
<line opacity="1" stroke="#000000" stroke-width="1" x1="377" y1="637" x2="379" y2="639"/>
<line opacity="1" stroke="#000000" stroke-width="1" x1="377" y1="639" x2="379" y2="637"/>
<line opacity="1" stroke="#000000" stroke-width="1" x1="928" y1="598" x2="930" y2="600"/>
<line opacity="1" stroke="#000000" stroke-width="1" x1="928" y1="600" x2="930" y2="598"/>
<line opacity="1" stroke="#000000" stroke-width="1" x1="970" y1="-1" x2="972" y2="1"/>
<line opacity="1" stroke="#000000" stroke-width="1" x1="970" y1="1" x2="972" y2="-1"/>
<line opacity="1" stroke="#000000" stroke-width="1" x1="1022" y1="731" x2="1024" y2="733"/>
<line opacity="1" stroke="#000000" stroke-width="1" x1="1022" y1="733" x2="1024" y2="731"/>
<line opacity="1" stroke="#000000" stroke-width="1" x1="918" y1="619" x2="920" y2="621"/>
<line opacity="1" stroke="#000000" stroke-width="1" x1="918" y1="621" x2="920" y2="619"/>
<line opacity="1" stroke="#000000" stroke-width="1" x1="928" y1="639" x2="930" y2="641"/>
<line opacity="1" stroke="#000000" stroke-width="1" x1="928" y1="641" x2="930" y2="639"/>
<line opacity="1" stroke="#000000" stroke-width="1" x1="928" y1="658" x2="930" y2="660"/>
<line opacity="1" stroke="#000000" stroke-width="1" x1="928" y1="660" x2="930" y2="658"/>
<line opacity="1" stroke="#000000" stroke-width="1" x1="221" y1="93" x2="223" y2="95"/>
<line opacity="1" stroke="#000000" stroke-width="1" x1="221" y1="95" x2="223" y2="93"/>
<line opacity="1" stroke="#000000" stroke-width="1" x1="928" y1="575" x2="930" y2="577"/>
<line opacity="1" stroke="#000000" stroke-width="1" x1="928" y1="577" x2="930" y2="575"/>
</svg>
